<svg width="20" height="20" viewBox="0 0 20 20" fill="none" xmlns="http://www.w3.org/2000/svg">
<path d="M13.4917 1.6665H6.50841C3.47508 1.6665 1.66675 3.47484 1.66675 6.50817V13.4832C1.66675 16.5248 3.47508 18.3332 6.50841 18.3332H13.4834C16.5167 18.3332 18.3251 16.5248 18.3251 13.4915V6.50817C18.3334 3.47484 16.5251 1.6665 13.4917 1.6665ZM14.1667 14.3748H5.83341C5.49175 14.3748 5.20841 14.0915 5.20841 13.7498C5.20841 13.4082 5.49175 13.1248 5.83341 13.1248H14.1667C14.5084 13.1248 14.7917 13.4082 14.7917 13.7498C14.7917 14.0915 14.5084 14.3748 14.1667 14.3748ZM14.1667 10.6248H5.83341C5.49175 10.6248 5.20841 10.3415 5.20841 9.99984C5.20841 9.65817 5.49175 9.37484 5.83341 9.37484H14.1667C14.5084 9.37484 14.7917 9.65817 14.7917 9.99984C14.7917 10.3415 14.5084 10.6248 14.1667 10.6248ZM14.1667 6.87484H5.83341C5.49175 6.87484 5.20841 6.5915 5.20841 6.24984C5.20841 5.90817 5.49175 5.62484 5.83341 5.62484H14.1667C14.5084 5.62484 14.7917 5.90817 14.7917 6.24984C14.7917 6.5915 14.5084 6.87484 14.1667 6.87484Z" fill="white"/>
</svg>
