<svg width="17" height="16" viewBox="0 0 17 16" fill="none" xmlns="http://www.w3.org/2000/svg">
<path d="M7.68291 13.3333C7.61286 13.3334 7.54348 13.3197 7.47876 13.2929C7.41404 13.2661 7.35525 13.2267 7.30578 13.1771L4.63911 10.5105C4.53909 10.4104 4.48291 10.2748 4.48291 10.1333C4.48291 9.99188 4.53911 9.85623 4.63913 9.75621C4.73915 9.65619 4.87481 9.60001 5.01626 9.60001C5.15771 9.60001 5.29336 9.6562 5.39338 9.75623L7.68291 12.0458L12.1058 7.62289C12.1553 7.57337 12.2141 7.53408 12.2788 7.50728C12.3435 7.48047 12.4129 7.46668 12.4829 7.46667C12.5529 7.46667 12.6223 7.48047 12.687 7.50727C12.7517 7.53407 12.8105 7.57335 12.86 7.62288C12.9096 7.6724 12.9488 7.73119 12.9756 7.7959C13.0024 7.86061 13.0162 7.92996 13.0162 8C13.0162 8.07004 13.0025 8.13939 12.9757 8.2041C12.9489 8.26881 12.9096 8.3276 12.86 8.37713L8.06004 13.1771C8.01057 13.2267 7.95179 13.2661 7.88707 13.2929C7.82235 13.3197 7.75297 13.3334 7.68291 13.3333Z" fill="currentColor"/>
<path d="M15.15 16.0001H2.35C1.9258 15.9996 1.51911 15.8309 1.21916 15.5309C0.919206 15.231 0.750481 14.8243 0.75 14.4001V2.66677C0.750481 2.24257 0.919206 1.83589 1.21916 1.53593C1.51911 1.23598 1.9258 1.06725 2.35 1.06677H3.41673C3.55818 1.06677 3.69384 1.12296 3.79386 1.22298C3.89388 1.323 3.95007 1.45866 3.95007 1.60011C3.95007 1.74155 3.89388 1.87721 3.79386 1.97723C3.69384 2.07725 3.55818 2.13344 3.41673 2.13344H2.35C2.2086 2.1336 2.07304 2.18984 1.97305 2.28982C1.87307 2.38981 1.81683 2.52537 1.81667 2.66677V14.4001C1.81683 14.5415 1.87307 14.6771 1.97305 14.7771C2.07304 14.877 2.2086 14.9333 2.35 14.9334H15.15C15.2914 14.9333 15.427 14.877 15.5269 14.7771C15.6269 14.6771 15.6832 14.5415 15.6833 14.4001V2.66677C15.6832 2.52537 15.6269 2.38981 15.5269 2.28982C15.427 2.18984 15.2914 2.1336 15.15 2.13344H14.0834C13.9419 2.13344 13.8063 2.07725 13.7062 1.97723C13.6062 1.87721 13.55 1.74155 13.55 1.60011C13.55 1.45866 13.6062 1.323 13.7062 1.22298C13.8063 1.12296 13.9419 1.06677 14.0834 1.06677H15.15C15.5742 1.06725 15.9809 1.23598 16.2808 1.53593C16.5808 1.83589 16.7495 2.24257 16.75 2.66677V14.4001C16.7495 14.8243 16.5808 15.231 16.2808 15.5309C15.9809 15.8309 15.5742 15.9996 15.15 16.0001Z" fill="currentColor"/>
<path d="M10.8833 2.13333H6.61667C6.47522 2.13333 6.33956 2.07714 6.23954 1.97712C6.13952 1.8771 6.08333 1.74145 6.08333 1.6C6.08333 1.45855 6.13952 1.3229 6.23954 1.22288C6.33956 1.12286 6.47522 1.06667 6.61667 1.06667H10.8833C10.9534 1.06667 11.0227 1.08046 11.0874 1.10726C11.1521 1.13407 11.2109 1.17335 11.2605 1.22288C11.31 1.2724 11.3493 1.3312 11.3761 1.3959C11.4029 1.46061 11.4167 1.52996 11.4167 1.6C11.4167 1.67004 11.4029 1.73939 11.3761 1.8041C11.3493 1.8688 11.31 1.9276 11.2605 1.97712C11.2109 2.02665 11.1521 2.06593 11.0874 2.09274C11.0227 2.11954 10.9534 2.13333 10.8833 2.13333ZM12.4833 3.2C12.3419 3.2 12.2062 3.14381 12.1062 3.04379C12.0062 2.94377 11.95 2.80812 11.95 2.66667V0.533333C11.95 0.391885 12.0062 0.256229 12.1062 0.15621C12.2062 0.0561903 12.3419 0 12.4833 0C12.6248 0 12.7604 0.0561903 12.8605 0.15621C12.9605 0.256229 13.0167 0.391885 13.0167 0.533333V2.66667C13.0167 2.80812 12.9605 2.94377 12.8605 3.04379C12.7604 3.14381 12.6248 3.2 12.4833 3.2ZM5.01667 3.2C4.94663 3.2 4.87728 3.1862 4.81257 3.1594C4.74786 3.1326 4.68907 3.09331 4.63954 3.04379C4.59002 2.99427 4.55073 2.93547 4.52393 2.87076C4.49713 2.80606 4.48333 2.73671 4.48333 2.66667V0.533333C4.48333 0.391885 4.53952 0.256229 4.63954 0.15621C4.73956 0.0561903 4.87522 0 5.01667 0C5.15812 0 5.29377 0.0561903 5.39379 0.15621C5.49381 0.256229 5.55 0.391885 5.55 0.533333V2.66667C5.55 2.80812 5.49381 2.94377 5.39379 3.04379C5.29377 3.14381 5.15812 3.2 5.01667 3.2ZM16.2167 5.86667H1.28333C1.14188 5.86667 1.00623 5.81048 0.90621 5.71046C0.80619 5.61044 0.75 5.47478 0.75 5.33333C0.75 5.19188 0.80619 5.05623 0.90621 4.95621C1.00623 4.85619 1.14188 4.8 1.28333 4.8H16.2167C16.3581 4.8 16.4938 4.85619 16.5938 4.95621C16.6938 5.05623 16.75 5.19188 16.75 5.33333C16.75 5.47478 16.6938 5.61044 16.5938 5.71046C16.4938 5.81048 16.3581 5.86667 16.2167 5.86667Z" fill="currentColor"/>
</svg>
