<svg width="35" height="24" viewBox="0 0 35 24" fill="none" xmlns="http://www.w3.org/2000/svg">
<path d="M26.5714 24C30.8303 24 34.2856 20.5446 34.2856 16.2857C34.2856 12.9214 32.1321 10.0607 29.1321 9.00536C29.1374 8.86071 29.1428 8.71607 29.1428 8.57143C29.1428 3.83571 25.3071 0 20.5714 0C17.3946 0 14.6249 1.725 13.141 4.29643C12.2966 3.72983 11.3025 3.42769 10.2856 3.42857C7.44636 3.42857 5.14279 5.73214 5.14279 8.57143C5.14279 9.225 5.266 9.84643 5.48565 10.425C2.35707 11.0571 -6.86646e-05 13.8268 -6.86646e-05 17.1429C-6.86646e-05 20.9304 3.06957 24 6.85707 24H26.5714ZM22.3392 12.375C22.8428 12.8786 22.8428 13.6929 22.3392 14.1911C21.8356 14.6893 21.0214 14.6946 20.5231 14.1911L18.4339 12.1018V19.2857C18.4339 19.9982 17.8606 20.5714 17.1481 20.5714C16.4356 20.5714 15.8624 19.9982 15.8624 19.2857V12.1018L13.7731 14.1911C13.2696 14.6946 12.4553 14.6946 11.9571 14.1911C11.4589 13.6875 11.4535 12.8732 11.9571 12.375L16.2428 8.08929C16.7464 7.58571 17.5606 7.58571 18.0589 8.08929L22.3446 12.375" fill="white"/>
</svg>
