<svg xmlns="http://www.w3.org/2000/svg" width="40" height="40" viewBox="0 0 40 40" fill="none">
  <path d="M29.1827 17.0752L29.1829 17.0758C29.3365 17.5379 29.2219 18.0368 28.8846 18.3834L25.3569 22.0047L25.0931 22.2755L25.1539 22.6487L25.9868 27.7587C26.0254 27.9969 25.9963 28.2412 25.9029 28.4635C25.8094 28.6859 25.6555 28.8773 25.4587 29.016C25.262 29.1546 25.0303 29.2351 24.7903 29.2481L24.831 29.997L24.7903 29.2481C24.5502 29.2612 24.3112 29.2064 24.1007 29.0899L19.8638 26.7427L19.5006 26.5415L19.1373 26.7425L14.9001 29.0869L14.9001 29.0869C14.6896 29.2034 14.4506 29.2582 14.2105 29.2451C13.9705 29.232 13.7388 29.1516 13.5421 29.013C13.3453 28.8743 13.1914 28.6829 13.0979 28.4605C13.0045 28.2383 12.9754 27.9943 13.0139 27.7562C13.0139 27.7561 13.0139 27.7559 13.014 27.7557L13.8469 22.6457L13.9077 22.2724L13.6438 22.0016L10.1158 18.3811L10.1143 18.3795C9.94971 18.2116 9.83469 18.0011 9.78215 17.7714C9.72961 17.5418 9.74165 17.302 9.81691 17.0788L9.81692 17.0788L9.8181 17.0752C9.89227 16.8516 10.0269 16.653 10.2068 16.5015C10.3867 16.35 10.605 16.2515 10.8373 16.2167L10.8373 16.2167L10.84 16.2163L15.6315 15.4822L16.027 15.4216L16.1969 15.0594L18.3415 10.4888L18.3426 10.4863C18.4452 10.2657 18.6086 10.0792 18.8134 9.94875C19.0182 9.81834 19.256 9.74941 19.4986 9.75002L19.5027 9.75001C19.7452 9.74925 19.9828 9.81808 20.1876 9.94844C20.3923 10.0788 20.5556 10.2653 20.658 10.4859L20.6593 10.4888L22.8039 15.0594L22.9738 15.4216L23.3693 15.4822L28.1608 16.2163L28.1635 16.2167C28.3958 16.2515 28.6141 16.35 28.794 16.5015C28.9739 16.653 29.1085 16.8516 29.1827 17.0752Z" stroke="white" strokeWidth="1.5"/>
</svg>