<svg width="21" height="21" viewBox="0 0 21 21" fill="none" xmlns="http://www.w3.org/2000/svg">
<path d="M20.0392 8.06131C19.9311 7.73584 19.7349 7.4467 19.4725 7.22598C19.21 7.00527 18.8915 6.86161 18.5523 6.81097L14.1551 6.13814L12.187 1.94897C12.0377 1.62772 11.7995 1.35596 11.5006 1.16589C11.2017 0.975812 10.8546 0.875377 10.5003 0.876474C10.1461 0.875601 9.7991 0.976128 9.50022 1.16618C9.20134 1.35623 8.9631 1.62786 8.81366 1.94897L6.84557 6.13814L2.44832 6.81097C2.10915 6.86161 1.79065 7.00527 1.52818 7.22598C1.26572 7.4467 1.06956 7.73584 0.961491 8.06131C0.851844 8.38608 0.834315 8.73489 0.91085 9.06902C0.987385 9.40316 1.15499 9.70955 1.39507 9.95422L4.63274 13.2726L3.86824 17.9567C3.81221 18.3022 3.85446 18.6564 3.99019 18.9789C4.12591 19.3015 4.34963 19.5793 4.63577 19.7808C4.92192 19.9822 5.25896 20.0991 5.60839 20.1181C5.95782 20.1371 6.30554 20.0574 6.61182 19.8881L10.5003 17.7395L14.3888 19.8909C14.6951 20.0601 15.0428 20.1398 15.3923 20.1208C15.7417 20.1019 16.0787 19.985 16.3649 19.7835C16.651 19.5821 16.8747 19.3042 17.0105 18.9817C17.1462 18.6591 17.1884 18.3049 17.1324 17.9595L16.3679 13.2753L19.6056 9.95606C20.0951 9.45372 20.261 8.72772 20.0392 8.06131Z" fill="currentColor"/>
</svg>
