<svg width="40" height="40" viewBox="0 0 40 40" fill="none" xmlns="http://www.w3.org/2000/svg">
<g clip-path="url(#clip0_379_3251)">
<path fill-rule="evenodd" clip-rule="evenodd" d="M26.4138 11.3945C25.8438 10.0645 24.3854 9.46725 23.0661 9.76182C20.9887 10.2256 19.0117 10.2256 16.9343 9.76182C15.615 9.46725 14.1566 10.0645 13.5866 11.3945L11.3108 16.7045C11.2908 16.7513 11.2758 16.799 11.2658 16.847C10.5881 16.6779 9.90545 16.4895 9.21669 16.2819C8.82011 16.1623 8.40169 16.3869 8.28212 16.7835C8.16256 17.18 8.38713 17.5985 8.78371 17.718C16.4914 20.0418 23.509 20.0418 31.2167 17.718C31.6133 17.5985 31.8378 17.18 31.7183 16.7835C31.5987 16.3869 31.1803 16.1623 30.7837 16.2819C30.0949 16.4895 29.4123 16.6779 28.7346 16.847C28.7245 16.799 28.7096 16.7513 28.6896 16.7045L26.4138 11.3945ZM27.2637 17.1854L25.0351 11.9854C24.7862 11.4045 24.1027 11.0673 23.393 11.2258C21.1003 11.7377 18.9 11.7377 16.6074 11.2258C15.8977 11.0673 15.2142 11.4045 14.9653 11.9854L12.7367 17.1854C17.6532 18.2193 22.3472 18.2193 27.2637 17.1854ZM14.5002 22.7499C12.9814 22.7499 11.7502 23.9812 11.7502 25.4999C11.7502 27.0187 12.9814 28.2499 14.5002 28.2499C16.019 28.2499 17.2502 27.0187 17.2502 25.4999C17.2502 23.9812 16.019 22.7499 14.5002 22.7499ZM10.2502 25.4999C10.2502 23.1527 12.153 21.2499 14.5002 21.2499C16.3318 21.2499 17.8928 22.4086 18.4902 24.033C19.5102 23.7422 20.4902 23.7422 21.5102 24.033C22.1076 22.4086 23.6686 21.2499 25.5002 21.2499C27.8474 21.2499 29.7502 23.1527 29.7502 25.4999C29.7502 27.8472 27.8474 29.7499 25.5002 29.7499C23.1601 29.7499 21.2617 27.8586 21.2503 25.5211C20.3923 25.2461 19.6081 25.2461 18.7501 25.5211C18.7387 27.8586 16.8403 29.7499 14.5002 29.7499C12.153 29.7499 10.2502 27.8472 10.2502 25.4999ZM22.7502 25.4999C22.7502 23.9812 23.9814 22.7499 25.5002 22.7499C27.019 22.7499 28.2502 23.9812 28.2502 25.4999C28.2502 27.0187 27.019 28.2499 25.5002 28.2499C23.9814 28.2499 22.7502 27.0187 22.7502 25.4999Z" fill="white"/>
</g>
<defs>
<clipPath id="clip0_379_3251">
<rect width="40" height="40" rx="20" fill="white"/>
</clipPath>
</defs>
</svg>
