<svg width="40" height="40" viewBox="0 0 40 40" fill="none" xmlns="http://www.w3.org/2000/svg">
<path d="M18.1365 21.9444C17.6778 22.4447 17.2287 22.9346 16.7803 23.4245C15.5948 24.7176 14.4094 26.0099 13.2246 27.3037C12.7343 27.8393 12.2462 28.3763 11.7532 28.9099C11.7134 28.9529 11.6462 28.9931 11.5907 28.9938C11.0819 29 10.5725 28.9979 10.0638 28.9972C10.0501 28.9972 10.0363 28.9903 10 28.9806C12.4635 26.2913 14.9167 23.6123 17.3809 20.9223C14.9428 17.628 12.5026 14.331 10.0459 11.0118C10.1234 11.0076 10.1721 11.0035 10.2201 11.0035C12.0069 11.0028 13.7936 11.0035 15.5797 11C15.6833 11 15.747 11.0326 15.8067 11.1136C17.1211 12.8931 18.4368 14.6719 19.7525 16.45C20.0055 16.7917 20.2579 17.1333 20.5211 17.4888C20.7323 17.2601 20.9387 17.0376 21.1437 16.8138C22.1146 15.7543 23.0848 14.6941 24.0556 13.6346C24.8325 12.7857 25.6086 11.9362 26.3875 11.0894C26.4245 11.0492 26.4848 11.0069 26.5356 11.0062C27.0594 11 27.5832 11.0028 28.1564 11.0028C25.8493 13.5223 23.5668 16.0142 21.2788 18.5129C23.8582 21.9985 26.4355 25.4819 29.0286 28.9854C28.9758 28.991 28.9484 28.9958 28.9216 28.9958C27.1047 28.9965 25.2877 28.9951 23.4708 29C23.3645 29 23.3179 28.9459 23.2651 28.8746C21.7032 26.7625 20.1413 24.6511 18.5787 22.5397C18.4347 22.347 18.2914 22.1537 18.1365 21.9444ZM26.537 27.734C26.4924 27.6688 26.4656 27.6273 26.4362 27.5878C25.1389 25.8346 23.841 24.0815 22.5438 22.3283C21.0827 20.3527 19.6216 18.3771 18.1605 16.4022C17.1745 15.069 16.1852 13.7371 15.202 12.4011C15.1265 12.2986 15.0532 12.2591 14.9277 12.2605C14.1899 12.2667 13.4522 12.2632 12.7138 12.2639C12.661 12.2639 12.6089 12.2681 12.5382 12.2716C12.5814 12.3325 12.6102 12.3734 12.6397 12.4143C13.337 13.3567 14.0336 14.2998 14.7309 15.2422C16.421 17.5255 18.1118 19.8087 19.8012 22.092C21.1602 23.9276 22.5191 25.7632 23.8739 27.6016C23.9493 27.7042 24.0261 27.7388 24.1502 27.7381C24.8832 27.7319 25.6161 27.7354 26.3484 27.7354C26.4033 27.734 26.4567 27.734 26.537 27.734Z" fill="white"/>
</svg>
