<svg width="28" height="28" viewBox="0 0 28 28" fill="none" xmlns="http://www.w3.org/2000/svg">
<rect width="28" height="28" rx="8" fill="#767DFF"/>
<path fill-rule="evenodd" clip-rule="evenodd" d="M12.0671 5.83333H15.9334C16.0674 5.83326 16.199 5.86888 16.3146 5.93653C16.4303 6.00418 16.5258 6.10141 16.5914 6.21823L22.5782 16.8975C22.6412 17.0101 22.6743 17.137 22.6743 17.266C22.6743 17.395 22.6412 17.5218 22.5782 17.6344L20.6624 21.0517C20.5969 21.1686 20.5016 21.2659 20.3861 21.3337C20.2706 21.4015 20.1392 21.4373 20.0052 21.4375H7.99524C7.86118 21.4375 7.72954 21.4017 7.61389 21.3339C7.49824 21.2661 7.40276 21.1687 7.33726 21.0517L5.42229 17.6344C5.35926 17.5218 5.32617 17.395 5.32617 17.266C5.32617 17.137 5.35926 17.0101 5.42229 16.8975L11.4091 6.21823C11.4747 6.10141 11.5702 6.00418 11.6859 5.93653C11.8015 5.86888 11.9331 5.83326 12.0671 5.83333ZM14.0002 10.082L9.96657 17.266H18.0339L14.0002 10.082Z" fill="white"/>
</svg>
