<svg width="28" height="28" viewBox="0 0 28 28" fill="none" xmlns="http://www.w3.org/2000/svg">
<rect width="28" height="28" rx="8" fill="#F7931A"/>
<path fill-rule="evenodd" clip-rule="evenodd" d="M15.1156 13.838C15.9504 13.6355 16.5819 13.068 16.7561 11.9002C16.9963 10.305 15.8217 9.45457 14.2121 8.89227L14.7467 6.73042L13.4708 6.41034L12.95 8.51509C12.6154 8.43031 12.2714 8.35073 11.929 8.27287L12.4533 6.15341L11.1783 5.83333L10.6438 7.99431C10.3658 7.93116 10.0929 7.86801 9.82867 7.8014L9.83039 7.79534L8.07151 7.35242L7.72402 8.75732C7.72402 8.75732 8.67039 8.97618 8.64979 8.98916C9.16716 9.11979 9.25897 9.47101 9.24181 9.75043L8.63263 12.2133C8.67788 12.2247 8.72231 12.2392 8.76562 12.2566L8.63006 12.2228L7.77722 15.6728C7.71287 15.8346 7.55157 16.0777 7.1895 15.9886C7.20237 16.0067 6.26287 15.755 6.26287 15.755L5.62109 17.262L7.2813 17.6798C7.46814 17.7269 7.65247 17.7753 7.83505 17.8232L7.83545 17.8233L7.83573 17.8233L7.8362 17.8235C7.95506 17.8547 8.07318 17.8856 8.19077 17.916L7.65024 20.1029L8.92349 20.423L9.45888 18.2603C9.79652 18.3526 10.1352 18.4411 10.4747 18.5259L9.94193 20.6799L11.2169 21L11.7574 18.8183C13.9333 19.2292 15.5721 19.0492 16.2722 17.0189C16.8359 15.3839 16.2576 14.4461 15.1156 13.838ZM20.8933 18.9739L21.3609 17.0854L23.2339 17.5569L23.5454 16.2973L21.6724 15.8267L22.1391 13.9382L20.8908 13.6242L20.4232 15.5127L18.5502 15.0421L18.2387 16.3008L20.1117 16.7714L19.645 18.6607L20.8933 18.9739ZM13.8158 16.1262C14.1945 14.5942 11.9913 14.0968 10.9138 13.8536C10.7927 13.8262 10.6857 13.8021 10.5983 13.78L9.88361 16.6755C9.95525 16.6934 10.0392 16.7158 10.1333 16.7408C11.1745 17.0183 13.4476 17.6241 13.8175 16.1253L13.8158 16.1262ZM11.8391 9.88717C12.7374 10.087 14.5776 10.4963 14.2336 11.8907C13.8958 13.2547 11.9993 12.7425 11.1331 12.5085C11.0555 12.4876 10.9861 12.4688 10.9269 12.4539L11.5764 9.82663C11.6491 9.8449 11.7382 9.86471 11.8391 9.88717Z" fill="white"/>
</svg>
