<svg width="28" height="28" viewBox="0 0 28 28" fill="none" xmlns="http://www.w3.org/2000/svg">
<rect width="28" height="28" rx="8" fill="#282B2C"/>
<path fill-rule="evenodd" clip-rule="evenodd" d="M5.24193 8.78687C5.2744 8.81581 5.30103 8.83775 5.32571 8.86167C5.5893 9.11628 5.85061 9.37319 6.11754 9.62457C6.1774 9.68088 6.17773 9.71954 6.13486 9.78431C5.57555 10.6277 5.37215 11.5517 5.55877 12.531C5.80893 13.8447 6.57586 14.802 7.82883 15.3789C8.56891 15.7195 9.35392 15.8069 10.1609 15.6877C10.7032 15.6076 11.2111 15.4255 11.6746 15.139C11.7515 15.0915 11.7936 15.0969 11.8563 15.1583C12.5374 15.8256 13.2227 16.4889 13.903 17.1568C13.9781 17.2306 14.017 17.239 14.0979 17.1603C14.8756 16.4029 15.6597 15.6513 16.4374 14.8938C16.5229 14.8104 16.5765 14.7961 16.6887 14.8612C17.3688 15.2562 18.1098 15.4146 18.9021 15.3789C20.4748 15.3079 21.9112 14.2472 22.3985 12.791C22.7675 11.688 22.6306 10.6416 22.0293 9.64619C21.99 9.58121 21.9864 9.54098 22.0467 9.48488C22.2659 9.28115 22.4789 9.07146 22.6947 8.86428C22.7148 8.84506 22.7372 8.82813 22.759 8.80975C25.0634 12.0787 25.3884 17.3375 21.6807 21.2096C17.8406 25.2199 11.5034 25.5321 7.27211 22.0898C2.97512 18.5939 2.46419 12.8544 5.24193 8.78687Z" fill="white"/>
<path fill-rule="evenodd" clip-rule="evenodd" d="M21.2113 7.48997C17.0875 3.42025 10.3825 3.76534 6.80494 7.32751C6.82572 7.35018 6.84597 7.37421 6.86848 7.39594C9.23195 9.68201 11.5959 11.9677 13.9579 14.2552C14.0244 14.3196 14.0621 14.3117 14.1228 14.2523C14.4278 13.9536 14.736 13.6579 15.0443 13.3623C17.0375 11.4508 19.0308 9.5394 21.0253 7.62913C21.0788 7.57784 21.145 7.53897 21.2113 7.48997ZM14.0351 15.6986C11.152 12.906 8.27667 10.1209 5.39404 7.32876C5.41483 7.30201 5.4315 7.27652 5.45217 7.25448C6.492 6.14085 7.69885 5.24109 9.10758 4.60085C9.87646 4.25137 10.6755 3.98799 11.5069 3.81518C12.4642 3.61625 13.4321 3.53539 14.4098 3.57781C15.8355 3.63945 17.1997 3.95455 18.5036 4.51612C20.0713 5.19125 21.3948 6.17836 22.5181 7.42478C22.5831 7.49687 22.5457 7.52915 22.4957 7.5771C21.0985 8.91786 19.7019 10.2591 18.3055 11.6007C16.9121 12.9394 15.5191 14.2785 14.1256 15.6173C14.1004 15.6415 14.0733 15.6643 14.0351 15.6986Z" fill="white"/>
<path fill-rule="evenodd" clip-rule="evenodd" d="M10.3201 13.7412C9.7348 14.2582 8.43378 14.3778 7.57256 13.5474C6.70842 12.7142 6.82674 11.4819 7.39417 10.8413C8.37089 11.8093 9.3462 12.7759 10.3201 13.7412Z" fill="white"/>
<path fill-rule="evenodd" clip-rule="evenodd" d="M17.8882 13.5412C18.868 12.593 19.8435 11.6491 20.8187 10.7053C21.2309 11.1506 21.4222 12.2877 20.7085 13.1258C19.9147 14.0577 18.6051 14.0524 17.8882 13.5412Z" fill="white"/>
</svg>
