<svg xmlns="http://www.w3.org/2000/svg" width="16" height="18" viewBox="0 0 16 18" fill="none">
  <path fill-rule="evenodd" clip-rule="evenodd" d="M4.50833 0.666992H11.4925C14.0667 0.666992 15.5 2.15033 15.5 4.69199V13.3003C15.5 15.8837 14.0667 17.3337 11.4925 17.3337H4.50833C1.975 17.3337 0.5 15.8837 0.5 13.3003V4.69199C0.5 2.15033 1.975 0.666992 4.50833 0.666992ZM4.73352 4.55024V4.5419H7.22435C7.58352 4.5419 7.87519 4.83357 7.87519 5.19107C7.87519 5.55857 7.58352 5.85024 7.22435 5.85024H4.73352C4.37435 5.85024 4.08352 5.55857 4.08352 5.20024C4.08352 4.8419 4.37435 4.55024 4.73352 4.55024ZM4.73352 9.61684H11.2669C11.6252 9.61684 11.9169 9.32517 11.9169 8.96684C11.9169 8.60851 11.6252 8.31601 11.2669 8.31601H4.73352C4.37435 8.31601 4.08352 8.60851 4.08352 8.96684C4.08352 9.32517 4.37435 9.61684 4.73352 9.61684ZM4.73361 13.4254H11.2669C11.5994 13.392 11.8503 13.1079 11.8503 12.7754C11.8503 12.4337 11.5994 12.1504 11.2669 12.117H4.73361C4.48361 12.092 4.24195 12.2087 4.10861 12.4254C3.97528 12.6337 3.97528 12.9087 4.10861 13.1254C4.24195 13.3337 4.48361 13.4587 4.73361 13.4254Z" fill="white"/>
</svg>