<svg xmlns="http://www.w3.org/2000/svg" width="16" height="16" viewBox="0 0 16 16" fill="none">
  <path d="M1.23646 6.23775C1.53587 6.23775 1.83529 6.38746 2.0848 6.63697L5.82749 10.5294C6.0271 10.7789 6.12691 10.7789 6.37642 10.5294C8.67194 8.13405 10.9675 5.78863 13.263 3.39331C13.5125 3.1438 13.762 2.84438 14.0115 2.59487C14.4606 2.14575 15.1094 2.09584 15.5585 2.49506C16.0575 2.89428 16.1573 3.64282 15.7082 4.14185C15.2092 4.74068 14.6602 5.28961 14.1113 5.83853C11.7659 8.28376 9.42047 10.729 7.02515 13.1742C6.42632 13.773 5.77759 13.8229 5.22866 13.274C3.58188 11.5773 1.93509 9.88064 0.338212 8.18395C-0.0111052 7.78473 -0.11091 7.33561 0.138602 6.88649C0.338212 6.48727 0.68753 6.23775 1.23646 6.23775Z" fill="white"/>
</svg>