<svg xmlns="http://www.w3.org/2000/svg" width="24" height="25" viewBox="0 0 24 25" fill="none">
  <path d="M22.3527 3.83336C22.2354 4.74496 22.0954 5.91992 21.9318 7.09081C21.3747 11.0945 20.8166 15.0971 20.2416 19.0977C20.1583 19.6786 20.0391 20.2686 19.8377 20.8127C19.4442 21.8764 18.7017 22.2337 17.7066 21.8509C17.228 21.6661 16.7627 21.4017 16.338 21.0975C14.3734 19.6939 12.424 18.2648 10.4708 16.8438C10.3478 16.7539 10.223 16.6641 10.1142 16.5559C9.63557 16.0833 9.54099 15.4309 9.9042 14.8521C10.0877 14.5592 10.3261 14.2999 10.5663 14.0569C12.283 12.3144 14.0092 10.583 15.726 8.84152C16.0419 8.52098 16.3342 8.17186 16.6302 7.82784C16.792 7.64103 16.9395 7.41645 16.756 7.17248C16.5602 6.91217 16.3162 7.02854 16.1072 7.17248C15.5283 7.5706 14.9504 7.96974 14.3848 8.3893C12.4892 9.79293 10.6032 11.2129 8.70295 12.6094C8.12786 13.032 7.53197 13.4291 6.91716 13.7813C6.17087 14.208 5.38486 14.2703 4.55723 13.9997C3.47421 13.6455 2.37039 13.3689 1.28264 13.033C0.95632 12.933 0.631889 12.7839 0.344346 12.5931C-0.0567005 12.3276 -0.118182 11.8826 0.216654 11.5294C0.471092 11.2609 0.789848 11.0322 1.11712 10.8791C5.84076 8.67717 10.5682 6.48342 15.3013 4.30498C16.7844 3.62307 18.2864 2.98914 19.7847 2.345C20.0808 2.21739 20.3891 2.11123 20.7012 2.04794C21.7824 1.8254 22.366 2.37052 22.3527 3.83336Z" fill="white"/>
</svg>