<svg xmlns="http://www.w3.org/2000/svg" width="24" height="25" viewBox="0 0 24 25" fill="none">
  <path d="M10.1365 13.9444C9.6778 14.4447 9.2287 14.9346 8.7803 15.4245C7.59482 16.7176 6.40935 18.0099 5.22457 19.3037C4.73433 19.8393 4.24616 20.3763 3.75318 20.9099C3.71341 20.9529 3.64622 20.9931 3.59069 20.9938C3.08194 21 2.57251 20.9979 2.06376 20.9972C2.05005 20.9972 2.03634 20.9903 2 20.9806C4.46351 18.2913 6.91673 15.6123 9.38092 12.9223C6.94278 9.62804 4.50259 6.331 2.04594 3.01178C2.12342 3.00762 2.1721 3.00346 2.22009 3.00346C4.00687 3.00277 5.79365 3.00346 7.57974 3C7.68327 3 7.74704 3.03257 7.80669 3.11364C9.12106 4.89313 10.4368 6.67193 11.7525 8.45003C12.0055 8.79165 12.2579 9.13328 12.5211 9.48876C12.7323 9.26009 12.9387 9.03765 13.1437 8.81383C14.1146 7.75431 15.0848 6.6941 16.0556 5.63459C16.8325 4.78573 17.6086 3.93617 18.3875 3.08939C18.4245 3.0492 18.4848 3.00693 18.5356 3.00624C19.0594 3 19.5832 3.00277 20.1564 3.00277C17.8493 5.52233 15.5668 8.01417 13.2788 10.5129C15.8582 13.9985 18.4355 17.4819 21.0286 20.9854C20.9758 20.991 20.9484 20.9958 20.9216 20.9958C19.1047 20.9965 17.2877 20.9951 15.4708 21C15.3645 21 15.3179 20.9459 15.2651 20.8746C13.7032 18.7625 12.1413 16.6511 10.5787 14.5397C10.4347 14.347 10.2914 14.1537 10.1365 13.9444ZM18.537 19.734C18.4924 19.6688 18.4656 19.6273 18.4362 19.5878C17.1389 17.8346 15.841 16.0815 14.5438 14.3283C13.0827 12.3527 11.6216 10.3771 10.1605 8.40222C9.17454 7.06899 8.18516 5.73714 7.20195 4.40114C7.12653 4.29858 7.05317 4.25909 6.9277 4.26047C6.18995 4.26671 5.4522 4.26324 4.71376 4.26394C4.66097 4.26394 4.60886 4.26809 4.53824 4.27156C4.58144 4.33254 4.61023 4.37342 4.63971 4.41431C5.33701 5.35671 6.03362 6.29981 6.73092 7.24222C8.42102 9.52548 10.1118 11.8087 11.8012 14.092C13.1602 15.9276 14.5191 17.7632 15.8739 19.6016C15.9493 19.7042 16.0261 19.7388 16.1502 19.7381C16.8832 19.7319 17.6161 19.7354 18.3484 19.7354C18.4033 19.734 18.4567 19.734 18.537 19.734Z" fill="white"/>
</svg>