<svg width="28" height="28" viewBox="0 0 28 28" fill="none" xmlns="http://www.w3.org/2000/svg">
<rect width="28" height="28" rx="8" fill="#2F2B32"/>
<path fill-rule="evenodd" clip-rule="evenodd" d="M10.3754 12.5106L14.0007 8.88532L17.6291 12.5137L19.7384 10.4044L14.0007 4.66666L8.26604 10.4013L10.3754 12.5106ZM4.66602 14.001L6.77479 11.8922L8.88356 14.001L6.77479 16.1098L4.66602 14.001ZM14.0006 19.1182L10.3753 15.4929L8.26287 17.5991L8.26598 17.6022L14.0006 23.3368L19.7383 17.5991L17.629 15.4898L14.0006 19.1182ZM19.1158 14.0025L21.2246 11.8937L23.3334 14.0025L21.2246 16.1113L19.1158 14.0025ZM14.0006 11.8614L16.141 14.0018L14.0006 16.1453L11.8602 14.0049V13.9986L12.2361 13.6228L12.4194 13.4426L14.0006 11.8614Z" fill="#F3BA2F"/>
</svg>
