<svg width="21" height="21" viewBox="0 0 21 21" fill="none" xmlns="http://www.w3.org/2000/svg">
<path d="M19.3617 6.87315L12.4317 1.33315C11.3617 0.473145 9.63173 0.473145 8.57173 1.32315L1.64173 6.87315C0.86173 7.49314 0.36173 8.80314 0.53173 9.78314L1.86173 17.7431C2.10173 19.1631 3.46173 20.3131 4.90173 20.3131H16.1017C17.5317 20.3131 18.9017 19.1531 19.1417 17.7431L20.4717 9.78314C20.6317 8.80314 20.1317 7.49314 19.3617 6.87315ZM10.5017 14.0031C9.12173 14.0031 8.00173 12.8831 8.00173 11.5031C8.00173 10.1231 9.12173 9.00315 10.5017 9.00315C11.8817 9.00315 13.0017 10.1231 13.0017 11.5031C13.0017 12.8831 11.8817 14.0031 10.5017 14.0031Z" fill="currentColor"/>
</svg>
