<svg width="22" height="22" viewBox="0 0 22 22" fill="none" xmlns="http://www.w3.org/2000/svg">
<g clip-path="url(#clip0_89_1616)">
<rect x="0.916504" y="0.916687" width="20.1667" height="20.1667" rx="6" fill="currentColor"/>
<path d="M17.0159 7.55931H11.5159C11.3338 7.55931 11.1591 7.63168 11.0302 7.76049C10.9014 7.8893 10.8291 8.06401 10.8291 8.24617C10.8291 8.42834 10.9014 8.60304 11.0302 8.73185C11.1591 8.86066 11.3338 8.93303 11.5159 8.93303H17.0159C17.1981 8.93303 17.3728 8.86066 17.5016 8.73185C17.6304 8.60304 17.7028 8.42834 17.7028 8.24617C17.7028 8.06401 17.6304 7.8893 17.5016 7.76049C17.3728 7.63168 17.1981 7.55931 17.0159 7.55931ZM17.0159 13.0619H11.5159C11.3338 13.0619 11.1591 13.1343 11.0302 13.2631C10.9014 13.3919 10.8291 13.5666 10.8291 13.7488C10.8291 13.931 10.9014 14.1057 11.0302 14.2345C11.1591 14.3633 11.3338 14.4356 11.5159 14.4356H17.0159C17.1981 14.4356 17.3728 14.3633 17.5016 14.2345C17.6304 14.1057 17.7028 13.931 17.7028 13.7488C17.7028 13.5666 17.6304 13.3919 17.5016 13.2631C17.3728 13.1343 17.1981 13.0619 17.0159 13.0619ZM7.39098 11.3437C6.06205 11.3437 4.98504 12.421 4.98504 13.7496C4.98504 15.0783 6.06236 16.1556 7.39098 16.1556C8.7196 16.1556 9.79692 15.0783 9.79692 13.7496C9.79692 12.421 8.71992 11.3437 7.39098 11.3437ZM8.12107 14.48C7.95213 14.6488 7.72991 14.7538 7.49225 14.7771C7.25459 14.8004 7.01621 14.7406 6.81771 14.6078C6.61921 14.4751 6.47288 14.2776 6.40364 14.0491C6.3344 13.8205 6.34655 13.5751 6.438 13.3545C6.52945 13.1339 6.69456 12.9518 6.90519 12.8393C7.11582 12.7268 7.35894 12.6908 7.59314 12.7375C7.82734 12.7841 8.03812 12.9105 8.18957 13.0951C8.34103 13.2797 8.42379 13.5112 8.42375 13.75C8.42409 13.8856 8.39752 14.02 8.34556 14.1454C8.29361 14.2707 8.2173 14.3845 8.12107 14.4801V14.48ZM8.9678 6.38933L6.70343 8.65363L5.81416 7.76429C5.68535 7.63547 5.51064 7.56311 5.32847 7.56311C5.1463 7.56311 4.97159 7.63547 4.84278 7.76429C4.71397 7.8931 4.6416 8.06781 4.6416 8.24998C4.6416 8.43214 4.71397 8.60685 4.84278 8.73566L6.21774 10.1107C6.28152 10.1745 6.35724 10.2251 6.44057 10.2596C6.52391 10.2941 6.61323 10.3119 6.70343 10.3119C6.79363 10.3119 6.88295 10.2941 6.96628 10.2596C7.04962 10.2251 7.12534 10.1745 7.18912 10.1107L9.93911 7.36071C10.0665 7.23161 10.1376 7.05737 10.137 6.87601C10.1364 6.69466 10.0641 6.52091 9.93585 6.39266C9.80762 6.26442 9.63387 6.1921 9.45252 6.19147C9.27116 6.19085 9.09692 6.26197 8.9678 6.38933Z" fill="#161616"/>
</g>
<defs>
<clipPath id="clip0_89_1616">
<rect width="22" height="22" fill="white"/>
</clipPath>
</defs>
</svg>
