<svg width="24" height="24" viewBox="0 0 24 24" fill="none" xmlns="http://www.w3.org/2000/svg">
<path d="M20.9327 9.7193C20.8316 9.41492 20.6482 9.14451 20.4027 8.9381C20.1572 8.73168 19.8594 8.59734 19.5422 8.54998L15.4299 7.92074L13.5893 4.00301C13.4497 3.70258 13.2269 3.44843 12.9474 3.27067C12.6678 3.09291 12.3432 2.99898 12.0119 3.00001C11.6807 2.99919 11.3561 3.09321 11.0766 3.27094C10.7971 3.44868 10.5743 3.70271 10.4345 4.00301L8.59398 7.92074L4.48165 8.54998C4.16446 8.59734 3.86659 8.73168 3.62113 8.9381C3.37567 9.14451 3.19223 9.41492 3.09116 9.7193C2.98862 10.023 2.97223 10.3492 3.0438 10.6617C3.11538 10.9742 3.27212 11.2607 3.49665 11.4896L6.52453 14.5929L5.80957 18.9735C5.75716 19.2966 5.79668 19.6278 5.92361 19.9295C6.05054 20.2311 6.25976 20.491 6.52737 20.6794C6.79497 20.8678 7.11018 20.9771 7.43696 20.9949C7.76375 21.0126 8.08894 20.9381 8.37538 20.7798L12.0119 18.7704L15.6485 20.7824C15.9349 20.9407 16.2601 21.0152 16.5869 20.9974C16.9137 20.9797 17.2289 20.8704 17.4965 20.682C17.7641 20.4936 17.9733 20.2337 18.1002 19.9321C18.2272 19.6304 18.2667 19.2991 18.2143 18.9761L17.4993 14.5955L20.5272 11.4913C20.985 11.0215 21.1401 10.3425 20.9327 9.7193Z" fill="currentColor"/>
</svg>
