<svg width="25" height="24" viewBox="0 0 25 24" fill="none" xmlns="http://www.w3.org/2000/svg">
<path d="M23.5 15.9707C23.5 19.8407 20.37 22.9707 16.5 22.9707L17.55 21.2207" stroke="#1A1C1E" strokeWidth="1.5" stroke-linecap="round" stroke-linejoin="round"/>
<path d="M1.5 7.9707C1.5 4.1007 4.63 0.970703 8.5 0.970703L7.45 2.7207" stroke="#1A1C1E" strokeWidth="1.5" stroke-linecap="round" stroke-linejoin="round"/>
<path d="M7.12012 13.0684H9.93012C10.5501 13.0684 11.0601 13.6284 11.0601 14.1984C11.0601 14.8184 10.5601 15.3284 9.93012 15.3284H7.12012V13.0684Z" stroke="#1A1C1E" strokeWidth="1.5" stroke-miterlimit="10" stroke-linecap="round" stroke-linejoin="round"/>
<path d="M7.12012 15.3301H10.3401C11.0501 15.3301 11.6301 15.8301 11.6301 16.4601C11.6301 17.0801 11.0501 17.5901 10.3401 17.5901H7.12012V15.3301Z" stroke="#1A1C1E" strokeWidth="1.5" stroke-miterlimit="10" stroke-linecap="round" stroke-linejoin="round"/>
<path d="M8.91992 17.5801V18.7001" stroke="#1A1C1E" strokeWidth="1.5" stroke-miterlimit="10" stroke-linecap="round" stroke-linejoin="round"/>
<path d="M8.91992 11.9492V13.0692" stroke="#1A1C1E" strokeWidth="1.5" stroke-miterlimit="10" stroke-linecap="round" stroke-linejoin="round"/>
<path d="M15.3498 15.3302C15.3498 18.7402 12.5898 21.5002 9.17977 21.5002C5.76977 21.5002 3.00977 18.7402 3.00977 15.3302C3.00977 11.9202 5.76977 9.16016 9.17977 9.16016C9.33977 9.16016 9.48977 9.17018 9.65977 9.18018C12.6898 9.41018 15.1098 11.8302 15.3398 14.8602C15.3398 15.0102 15.3498 15.1602 15.3498 15.3302Z" stroke="#1A1C1E" strokeWidth="1.5" stroke-miterlimit="10" stroke-linecap="round" stroke-linejoin="round"/>
<path d="M22.0002 8.66998C22.0002 12.08 19.2402 14.84 15.8302 14.84H15.3402C15.1102 11.81 12.6902 9.38997 9.66016 9.15997V8.66998C9.66016 5.25998 12.4202 2.5 15.8302 2.5C19.2402 2.5 22.0002 5.25998 22.0002 8.66998Z" stroke="#1A1C1E" strokeWidth="1.5" stroke-miterlimit="10" stroke-linecap="round" stroke-linejoin="round"/>
</svg>
