<svg width="20" height="20" viewBox="0 0 20 20" fill="none" xmlns="http://www.w3.org/2000/svg">
<path d="M11.0655 6.04297V3.5013C11.0655 3.28029 11.1533 3.06833 11.3096 2.91205C11.4659 2.75577 11.6778 2.66797 11.8988 2.66797C12.1175 2.66889 12.327 2.75568 12.4822 2.90964L18.3155 8.74297C18.3936 8.82044 18.4556 8.91261 18.4979 9.01415C18.5402 9.1157 18.562 9.22463 18.562 9.33464C18.562 9.44465 18.5402 9.55357 18.4979 9.65512C18.4556 9.75667 18.3936 9.84883 18.3155 9.9263L12.4822 15.7596C12.3652 15.8743 12.217 15.952 12.0561 15.9829C11.8953 16.0138 11.7288 15.9966 11.5777 15.9335C11.4265 15.8704 11.2973 15.7641 11.2062 15.6279C11.1151 15.4918 11.0662 15.3318 11.0655 15.168V12.5846H10.3572C9.04058 12.565 7.73548 12.8321 6.53246 13.3674C5.32944 13.9027 4.25732 14.6934 3.39051 15.6846C3.28605 15.8237 3.1407 15.9266 2.97482 15.9789C2.80894 16.0312 2.63085 16.0303 2.46551 15.9763C2.29726 15.9195 2.15154 15.8105 2.04961 15.6651C1.94767 15.5197 1.89485 15.3455 1.89885 15.168C1.89885 7.56797 8.63218 6.26797 11.0655 6.04297ZM10.3572 10.9013C10.9145 10.8996 11.4714 10.9358 12.0238 11.0096C12.2211 11.0396 12.4011 11.1393 12.5311 11.2907C12.6611 11.4421 12.7324 11.6351 12.7322 11.8346V13.1596L16.5488 9.33464L12.7322 5.50964V6.83464C12.7322 7.05565 12.6444 7.26761 12.4881 7.42389C12.3318 7.58017 12.1199 7.66797 11.8988 7.66797C11.1405 7.66797 5.14051 7.83464 3.84051 13.0263C5.72743 11.6351 8.01287 10.8898 10.3572 10.9013Z" fill="white"/>
</svg>
