<svg width="16" height="18" viewBox="0 0 16 18" fill="none" xmlns="http://www.w3.org/2000/svg">
<path d="M2.40877 17.2939C2.05332 17.2939 1.69787 17.1754 1.41351 16.9621C0.986967 16.654 0.75 16.1801 0.75 15.6825V2.31755C0.75 1.41708 1.4846 0.706177 2.40877 0.706177H14.0912C15.0154 0.706177 15.75 1.44077 15.75 2.31755V15.6825C15.75 16.2038 15.513 16.654 15.0865 16.9621C14.66 17.2702 14.0912 17.3649 13.5699 17.2228L8.30924 15.5877C8.26185 15.564 8.19076 15.564 8.14336 15.5877L2.8827 17.2228C2.76422 17.2702 2.57464 17.2939 2.40877 17.2939ZM8.26185 14.1422C8.42772 14.1422 8.5936 14.1659 8.75948 14.2133L14.0201 15.8484C14.1386 15.8958 14.2334 15.8247 14.2571 15.801C14.3045 15.7773 14.3282 15.7299 14.3282 15.6588V2.31755C14.3282 2.22276 14.2097 2.12798 14.0912 2.12798H2.40877C2.29028 2.12798 2.1718 2.22276 2.1718 2.31755V15.6825C2.1718 15.7536 2.21919 15.801 2.24289 15.8247C2.26659 15.8484 2.36137 15.8958 2.47986 15.8721L7.74052 14.237C7.9064 14.1659 8.09597 14.1422 8.26185 14.1422Z" fill="currentColor"/>
<path d="M11.2237 8.38384H5.27584C4.873 8.38384 4.56494 8.07578 4.56494 7.67294C4.56494 7.27009 4.873 6.96204 5.27584 6.96204H11.2237C11.6266 6.96204 11.9346 7.27009 11.9346 7.67294C11.9346 8.07578 11.6266 8.38384 11.2237 8.38384Z" fill="currentColor"/>
<path d="M8.26168 11.0617C7.85884 11.0617 7.55078 10.7536 7.55078 10.3508V4.59249C7.55078 4.18965 7.85884 3.88159 8.26168 3.88159C8.66453 3.88159 8.97258 4.18965 8.97258 4.59249V10.3508C8.97258 10.7536 8.64083 11.0617 8.26168 11.0617Z" fill="currentColor"/>
</svg>
