<svg width="187" height="180" viewBox="0 0 187 180" fill="none" xmlns="http://www.w3.org/2000/svg">
<circle cx="95.5" cy="90.5" r="70.5" fill="#00AB5E"/>
<circle cx="178.966" cy="27.5" r="7.5" fill="#00AB5E"/>
<circle cx="20.5332" cy="10" r="10" fill="#00AB5E"/>
<circle cx="10.5332" cy="133" r="5" fill="#00AB5E"/>
<circle cx="166.033" cy="160.5" r="2.5" fill="#00AB5E"/>
<g clip-path="url(#clip0_134_2844)">
<path d="M81.2525 87C82.2525 87 83.2525 86.8334 84.2525 86.3334C83.4191 84.8334 82.9191 83 82.9191 81C82.9191 78.1667 83.9191 75.5 85.5858 73.3334C84.4191 72.5 82.9191 72 81.2525 72C77.0858 72 73.7525 75.3334 73.7525 79.5C73.7525 83.6667 77.0858 87 81.2525 87ZM88.7525 92.6667C87.0858 89.6667 82.5858 89.8334 82.5858 89.8334H78.9191C78.9191 89.8334 75.5858 89.6667 73.5858 92.5C72.5858 94 70.9191 99.6667 70.2525 102.667C70.2525 103 70.0858 103.333 70.0858 103.333C69.7525 104.333 70.4191 105.333 71.5858 105.333H79.9191C80.9191 102.167 82.0858 98.5 83.0858 96.8334C84.7525 94.5 87.0858 93.3334 88.9191 92.8334C88.9191 92.8334 88.9191 92.6667 88.7525 92.6667ZM120.086 103.333V103C119.419 100.333 117.586 94.1667 116.419 92.6667C114.752 89.6667 110.252 89.8334 110.252 89.8334H106.586C106.586 89.8334 103.252 89.6667 101.252 92.5C101.086 92.6667 101.086 92.8334 100.919 93C103.086 93.5 105.419 94.6667 106.752 97.1667C107.919 98.6667 109.086 102.167 110.086 105.333H118.586C119.752 105.333 120.419 104.5 120.086 103.333ZM105.919 86.5C106.752 86.8334 107.752 87.1667 108.919 87.1667C113.086 87.1667 116.419 83.8334 116.419 79.6667C116.419 75.5 113.086 72.1667 108.919 72.1667C107.252 72.1667 105.752 72.6667 104.586 73.6667C106.252 75.6667 107.252 78.3334 107.252 81.3334C107.086 83 106.752 84.8334 105.919 86.5ZM95.0858 91C100.586 91 104.919 86.5 104.919 81.1667C104.919 75.6667 100.419 71.3334 95.0858 71.3334C89.5858 71.3334 85.2525 75.8334 85.2525 81.1667C85.2525 86.5 89.5858 91 95.0858 91Z" fill="#fff"/>
<path d="M109.753 111.833C108.919 108.333 106.586 100.333 104.919 98.3334C102.753 94.5 96.7526 94.6667 96.7526 94.6667H91.9193C91.9193 94.6667 87.4193 94.5 84.9193 98.1667C83.5859 100.167 81.4193 107.667 80.5859 111.5" fill="#fff"/>
</g>
<circle cx="107.033" cy="4.5" r="2.5" fill="#00AB5E"/>
<circle cx="63.0332" cy="176.5" r="3.5" fill="#00AB5E"/>
<circle cx="122.533" cy="171" r="1" fill="#00AB5E"/>
<circle cx="171.033" cy="110.5" r="2.5" fill="#00AB5E"/>
<circle cx="1.5332" cy="75" r="1" fill="#00AB5E"/>
<defs>
<clipPath id="clip0_134_2844">
<rect width="50.1465" height="50" fill="white" transform="translate(70 69)"/>
</clipPath>
</defs>
</svg>
