<svg width="20" height="20" viewBox="0 0 20 20" fill="none" xmlns="http://www.w3.org/2000/svg">
<path d="M2.19836 8.63017C2.0469 8.62905 1.8957 8.61743 1.74585 8.59538C1.56865 8.57139 1.40825 8.47798 1.29992 8.33572C1.19159 8.19346 1.14421 8.01399 1.16821 7.8368C1.19221 7.6596 1.28561 7.4992 1.42787 7.39087C1.57013 7.28254 1.7496 7.23516 1.9268 7.25916C2.29975 7.30959 2.5163 7.27075 2.65087 7.12891C2.87604 6.89213 2.93807 6.63568 3.01627 6.31126C3.13709 5.81048 3.3024 5.1247 4.18045 4.73799C4.7508 4.48666 5.27073 4.47264 5.72621 4.69619C6.10213 4.88092 6.3621 5.19185 6.59159 5.46638C6.84939 5.77488 7.07187 6.04105 7.41759 6.13166C8.27731 6.35737 8.64056 6.23953 8.78052 6.15027C8.83067 6.11818 8.98304 6.02028 9.05019 5.63465C9.08282 5.44588 9.07446 5.22367 8.76434 4.99769C8.58823 4.87553 8.39222 4.78492 8.18508 4.7299C8.16998 4.72721 8.15488 4.7237 8.13977 4.71993C7.51279 4.55812 7.06109 4.17465 6.79357 3.5811C6.5932 3.13398 6.53172 2.63967 6.47751 2.20388C6.46322 2.09008 6.45055 1.98302 6.43491 1.88028C6.42047 1.79209 6.42371 1.70192 6.44443 1.61499C6.46515 1.52807 6.50295 1.44614 6.55562 1.37395C6.6083 1.30177 6.67479 1.24077 6.75125 1.19452C6.82771 1.14826 6.91259 1.11767 7.00098 1.10451C7.08936 1.09136 7.17948 1.09591 7.2661 1.11789C7.35271 1.13988 7.43409 1.17886 7.5055 1.23257C7.57691 1.28629 7.63693 1.35367 7.68207 1.43079C7.72721 1.50791 7.75657 1.59323 7.76844 1.6818C7.78596 1.79965 7.80107 1.92019 7.81536 2.03642C7.94561 3.08167 8.09123 3.30657 8.45529 3.4077C8.8388 3.49874 9.20202 3.66033 9.52643 3.88421C10.2136 4.36962 10.5161 5.07266 10.3786 5.86468C10.2669 6.50758 9.97408 6.98517 9.50971 7.2837C8.92236 7.66124 8.12629 7.71086 7.07592 7.43525C6.31355 7.23516 5.87642 6.71226 5.55739 6.3296C5.3999 6.14083 5.25132 5.96338 5.13239 5.90513C5.10192 5.89003 5.00942 5.84473 4.72438 5.97039C4.46657 6.08501 4.43178 6.19287 4.32688 6.62759C4.23222 7.02077 4.10224 7.5593 3.62843 8.05685C3.17592 8.53363 2.60988 8.63017 2.19836 8.63017ZM8.20719 4.73395C8.30187 4.74994 8.39895 4.74385 8.49089 4.71615C8.39867 4.74225 8.30194 4.74832 8.20719 4.73395ZM18.5817 13.0425C17.4332 13.0425 16.584 12.7011 16.0528 12.0248C15.6421 11.5019 15.4522 10.7921 15.5034 9.97206C15.5248 9.61696 15.5881 9.26564 15.6922 8.92546C15.6987 8.90631 15.7057 8.88717 15.7138 8.86856C15.8146 8.63556 16.1277 7.85271 15.9185 7.55957C15.8489 7.46195 15.6714 7.42474 15.3112 7.3708C14.9743 7.31902 14.5561 7.25484 14.1478 7.03182C12.9726 6.38785 12.4435 4.76658 12.5298 2.07714C12.5355 1.89833 12.6121 1.72914 12.7426 1.60678C12.8731 1.48442 13.0469 1.41891 13.2257 1.42467C13.4045 1.43042 13.5737 1.50698 13.696 1.63748C13.8184 1.76798 13.8839 1.94175 13.8781 2.12056C13.8121 4.16467 14.1378 5.48876 14.795 5.84931C14.9935 5.95718 15.2467 5.99682 15.5145 6.03808C16.0015 6.11251 16.6075 6.20528 17.0155 6.77698C17.4542 7.39211 17.437 8.26503 16.9645 9.37231C16.8585 9.72153 16.6949 10.6667 17.1147 11.1958C17.4262 11.5896 18.0553 11.7519 18.9846 11.6783C19.1615 11.6667 19.3358 11.7252 19.4698 11.8412C19.6039 11.9571 19.6869 12.1212 19.7008 12.2979C19.7148 12.4746 19.6586 12.6496 19.5445 12.7852C19.4303 12.9208 19.2674 13.006 19.0909 13.0223C18.9154 13.0358 18.7457 13.0425 18.5817 13.0425Z" fill="white"/>
<path d="M9.98703 20C7.50817 19.9968 5.11886 19.073 3.28257 17.4078C1.44628 15.7427 0.293895 13.4548 0.048959 10.9881C-0.195977 8.52138 0.483994 6.0516 1.95697 4.05785C3.42995 2.06409 5.59094 0.688482 8.02075 0.197854C10.4506 -0.292774 12.976 0.136553 15.1072 1.40256C17.2384 2.66856 18.8234 4.68099 19.5548 7.04949C20.2862 9.41799 20.1118 11.9737 19.0655 14.2209C18.0192 16.4681 16.1755 18.2467 13.8921 19.2115C12.6567 19.7343 11.3285 20.0025 9.98703 20ZM9.98703 1.28474C7.97807 1.28476 6.03126 1.98135 4.47833 3.25584C2.9254 4.53032 1.86242 6.30384 1.4705 8.2742C1.07859 10.2446 1.382 12.2899 2.32904 14.0616C3.27607 15.8333 4.80813 17.2219 6.66417 17.9907C8.52022 18.7594 10.5854 18.8609 12.5079 18.2777C14.4303 17.6945 16.0911 16.4628 17.2072 14.7924C18.3233 13.122 18.8257 11.1163 18.6287 9.11699C18.4318 7.1177 17.5477 5.24855 16.1272 3.82801C15.3227 3.01915 14.3658 2.37789 13.3119 1.94133C12.2579 1.50478 11.1278 1.28161 9.98703 1.28474Z" fill="white"/>
<path d="M15.2631 18.3988C15.198 18.3991 15.1332 18.3901 15.0708 18.3718C14.5809 18.2185 14.106 18.0209 13.652 17.7815C13.2179 17.5479 12.87 17.2961 12.616 17.0302C12.1386 16.531 12.0569 16.0483 12.0766 15.7225C12.0796 15.5413 12.1262 14.8488 12.6203 13.9516C12.9169 13.4123 12.8107 12.7381 12.3689 12.3479C12.229 12.2241 12.1022 12.1669 11.9914 12.178C11.8042 12.1971 11.5534 12.3956 11.2986 12.7246C11.0854 13.1122 10.8379 13.48 10.5592 13.8235C9.87554 14.6625 9.14392 15.1549 8.38507 15.2878C7.83062 15.3849 6.98277 15.3264 6.09879 14.4971C6.06929 14.4698 6.04222 14.4399 6.01788 14.4079C5.76096 14.0812 5.47364 13.7796 5.15979 13.5072C4.70512 13.1121 4.00559 12.6202 3.25455 12.5186C2.68986 12.4422 2.17101 12.5941 1.66807 12.9827C1.5266 13.092 1.34749 13.1407 1.17012 13.118C0.992764 13.0953 0.831688 13.0031 0.722332 12.8616C0.612976 12.7201 0.564297 12.541 0.587004 12.3636C0.609712 12.1863 0.701945 12.0252 0.843415 11.9158C1.6376 11.3021 2.51188 11.0556 3.44171 11.1831C5.32941 11.442 6.79292 13.2057 7.0599 13.5471C7.43528 13.8863 7.79314 14.0212 8.1518 13.9589C8.57141 13.8863 9.03713 13.5514 9.49881 12.9905C9.7384 12.6982 9.94969 12.3838 10.1298 12.0515C10.1475 12.0173 10.168 11.9846 10.1911 11.9539C10.7034 11.2719 11.2635 10.8957 11.8566 10.8355C12.3495 10.7856 12.8357 10.959 13.2632 11.3371C13.7139 11.7387 14.0113 12.2843 14.1045 12.8807C14.1961 13.4721 14.0894 14.0771 13.8012 14.6015C13.4379 15.2611 13.4236 15.7295 13.4236 15.7341C13.4242 15.7563 13.4236 15.7784 13.4217 15.8005C13.4134 15.9083 13.5808 16.2093 14.2744 16.5855C14.6525 16.7852 15.0477 16.9505 15.4553 17.0795C15.6115 17.1251 15.7459 17.2255 15.8338 17.3623C15.9217 17.4992 15.9572 17.6632 15.9337 17.8241C15.9102 17.985 15.8294 18.1321 15.706 18.2381C15.5827 18.3441 15.4252 18.4019 15.2625 18.4009L15.2631 18.3988Z" fill="white"/>
</svg>
