<svg xmlns="http://www.w3.org/2000/svg" width="24" height="25" viewBox="0 0 24 25" fill="none">
  <path d="M6.39129 10.4118H2.98C2.73956 11.2535 2.61803 12.1246 2.61894 13C2.61894 13.8981 2.74447 14.7665 2.98129 15.5882H6.39259C6.25024 14.76 6.17776 13.8968 6.17776 13C6.17776 12.1032 6.25024 11.24 6.39259 10.4118H6.39129ZM7.70741 10.4118C7.54664 11.2651 7.46734 12.1317 7.47059 13C7.47059 13.9033 7.54823 14.7665 7.70741 15.5882H11.3529V10.4118H7.70741ZM9.60329 22.0731C8.22303 20.6052 7.22021 18.8238 6.68118 16.8824H3.45624C4.0331 18.1484 4.88368 19.2706 5.94666 20.1682C7.00964 21.0658 8.25852 21.7164 9.60329 22.0731ZM11.3529 21.9825V16.8824H8.03094C8.63918 18.8313 9.74565 20.5279 11.3529 21.9838V21.9825ZM9.60329 3.92824C8.25865 4.28474 7.00984 4.93511 5.94687 5.83248C4.88391 6.72985 4.03326 7.85186 3.45624 9.11765H6.68118C7.21983 7.17631 8.2222 5.39496 9.602 3.92694L9.60329 3.92824ZM11.3529 4.01882C9.74565 5.47082 8.64047 7.16741 8.03094 9.11765H11.3529V4.01624V4.01882ZM17.6087 10.4118C17.7511 11.24 17.8235 12.1032 17.8235 13C17.8235 13.8968 17.7511 14.76 17.6087 15.5882H21.0213C21.2568 14.7665 21.3824 13.8981 21.3824 13C21.3824 12.1019 21.2568 11.2335 21.02 10.4118H17.6087ZM16.2926 10.4118H12.6471V15.5882H16.2926C16.4505 14.7665 16.5294 13.9033 16.5294 13C16.5294 12.0967 16.4518 11.2335 16.2926 10.4118ZM14.3967 22.0731C15.7415 21.7164 16.9904 21.0658 18.0533 20.1682C19.1163 19.2706 19.9669 18.1484 20.5438 16.8824H17.3188C16.7802 18.8237 15.7778 20.605 14.398 22.0731H14.3967ZM12.6471 21.9825C14.2544 20.5279 15.3595 18.8313 15.9691 16.8824H12.6471V21.9838V21.9825ZM14.3967 3.92824C15.7768 5.39575 16.7796 7.17665 17.3188 9.11765H20.5451C19.9682 7.85162 19.1176 6.72936 18.0546 5.83176C16.9917 4.93416 15.7428 4.28359 14.398 3.92694L14.3967 3.92824ZM12.6471 4.01882V9.11765H15.9691C15.3608 7.16871 14.2544 5.47212 12.6471 4.01624V4.01882ZM12 24C9.08262 24 6.28473 22.8411 4.22183 20.7782C2.15893 18.7153 1 15.9174 1 13C1 10.0826 2.15893 7.28473 4.22183 5.22183C6.28473 3.15893 9.08262 2 12 2C14.9174 2 17.7153 3.15893 19.7782 5.22183C21.8411 7.28473 23 10.0826 23 13C23 15.9174 21.8411 18.7153 19.7782 20.7782C17.7153 22.8411 14.9174 24 12 24Z" fill="white"/>
</svg>