<svg width="21" height="21" viewBox="0 0 21 21" fill="none" xmlns="http://www.w3.org/2000/svg">
<path d="M17.9352 10.7713C17.9426 10.7563 17.949 10.7412 17.9553 10.7256C17.9623 10.7074 17.968 10.6889 17.9732 10.6703C17.9817 10.6408 17.9878 10.6106 17.9916 10.5801C17.9938 10.5627 17.9963 10.5453 17.9971 10.5277C17.9975 10.5182 18 10.5092 18 10.4996C18 10.4867 17.9971 10.4746 17.9963 10.4619C17.9954 10.4501 17.9942 10.4383 17.9928 10.4266C17.9902 10.4066 17.9881 10.3867 17.9836 10.3674C17.9771 10.3361 17.9681 10.3055 17.9568 10.2756C17.9553 10.2713 17.9545 10.2668 17.9527 10.2625C17.9395 10.2314 17.9237 10.2014 17.9055 10.1729C17.9016 10.1666 17.899 10.1598 17.8949 10.1535C17.8719 10.1187 17.8455 10.0863 17.816 10.0568L17.8158 10.0565L14.0678 6.3084C13.9506 6.19121 13.7916 6.12537 13.6259 6.12537C13.4601 6.12537 13.3012 6.19121 13.184 6.3084C13.0668 6.4256 13.0009 6.58456 13.0009 6.7503C13.0009 6.91604 13.0668 7.075 13.184 7.19219L15.866 9.87423H7.375C7.20924 9.87423 7.05027 9.94007 6.93306 10.0573C6.81585 10.1745 6.75 10.3335 6.75 10.4992C6.75 10.665 6.81585 10.824 6.93306 10.9412C7.05027 11.0584 7.20924 11.1242 7.375 11.1242H15.8643L13.1811 13.8076C13.0935 13.895 13.0339 14.0064 13.0097 14.1277C12.9855 14.2489 12.9979 14.3747 13.0452 14.4889C13.0926 14.6032 13.1727 14.7008 13.2756 14.7695C13.3785 14.8381 13.4994 14.8747 13.623 14.8746C13.7832 14.8746 13.943 14.8137 14.065 14.6914L17.8059 10.9506L17.816 10.9404C17.8402 10.9162 17.8615 10.8904 17.8809 10.8637C17.8879 10.8541 17.8934 10.8436 17.9 10.8334C17.9129 10.8133 17.9248 10.7926 17.9352 10.7713Z" fill="white"/>
<path d="M12.3752 16.75H4.8752C4.70948 16.7498 4.5506 16.6839 4.43343 16.5668C4.31625 16.4496 4.25035 16.2907 4.2502 16.125V4.875C4.2502 4.53027 4.53066 4.25 4.8752 4.25H12.3752C12.541 4.25 12.6999 4.18415 12.8171 4.06694C12.9343 3.94973 13.0002 3.79076 13.0002 3.625C13.0002 3.45924 12.9343 3.30027 12.8171 3.18306C12.6999 3.06585 12.541 3 12.3752 3H4.8752C3.84121 3 3 3.84121 3 4.875V16.125C3 17.1588 3.84121 18 4.8752 18H12.3752C12.541 18 12.6999 17.9342 12.8171 17.8169C12.9343 17.6997 13.0002 17.5408 13.0002 17.375C13.0002 17.2092 12.9343 17.0503 12.8171 16.9331C12.6999 16.8158 12.541 16.75 12.3752 16.75Z" fill="white"/>
</svg>
