<svg width="187" height="180" viewBox="0 0 187 180" fill="none" xmlns="http://www.w3.org/2000/svg">
<circle cx="95.5" cy="90.5" r="70.5" fill="#00AB5E"/>
<circle cx="178.966" cy="27.5" r="7.5" fill="#00AB5E"/>
<circle cx="20.5332" cy="10" r="10" fill="#00AB5E"/>
<circle cx="10.5332" cy="133" r="5" fill="#00AB5E"/>
<circle cx="166.033" cy="160.5" r="2.5" fill="#00AB5E"/>
<circle cx="107.033" cy="4.5" r="2.5" fill="#00AB5E"/>
<circle cx="63.0332" cy="176.5" r="3.5" fill="#00AB5E"/>
<circle cx="122.533" cy="171" r="1" fill="#00AB5E"/>
<circle cx="171.033" cy="110.5" r="2.5" fill="#00AB5E"/>
<circle cx="1.5332" cy="75" r="1" fill="#00AB5E"/>
<path d="M93.75 98.285L90.215 94.75C89.9806 94.5154 89.6627 94.3836 89.3311 94.3835C88.9995 94.3834 88.6814 94.515 88.4469 94.7494C88.2123 94.9838 88.0805 95.3017 88.0804 95.6333C88.0803 95.9649 88.2119 96.2829 88.4462 96.5175L92.8663 100.938C93.1007 101.172 93.4185 101.303 93.75 101.303C94.0815 101.303 94.3993 101.172 94.6337 100.938L104.356 91.215C104.591 90.9806 104.723 90.6627 104.723 90.3311C104.723 89.9995 104.591 89.6814 104.357 89.4469C104.122 89.2123 103.805 89.0805 103.473 89.0804C103.141 89.0803 102.823 89.2119 102.589 89.4462L93.75 98.285ZM106.188 76H112.5C113.163 76 113.799 76.2634 114.268 76.7322C114.737 77.2011 115 77.837 115 78.5V108.5C115 109.163 114.737 109.799 114.268 110.268C113.799 110.737 113.163 111 112.5 111H77.5C76.837 111 76.2011 110.737 75.7322 110.268C75.2634 109.799 75 109.163 75 108.5V78.5C75 77.837 75.2634 77.2011 75.7322 76.7322C76.2011 76.2634 76.837 76 77.5 76H83.8125C83.7713 76.2025 83.75 76.4112 83.75 76.625V79.125C83.75 79.9538 84.0792 80.7487 84.6653 81.3347C85.2513 81.9208 86.0462 82.25 86.875 82.25C87.7038 82.25 88.4987 81.9208 89.0847 81.3347C89.6708 80.7487 90 79.9538 90 79.125V76.625C90 76.4112 89.9788 76.2025 89.9375 76H100.063C100.021 76.2025 100 76.4112 100 76.625V79.125C100 79.9538 100.329 80.7487 100.915 81.3347C101.501 81.9208 102.296 82.25 103.125 82.25C103.954 82.25 104.749 81.9208 105.335 81.3347C105.921 80.7487 106.25 79.9538 106.25 79.125V76.625C106.25 76.4112 106.229 76.2025 106.188 76ZM86.875 71C87.3723 71 87.8492 71.1975 88.2008 71.5492C88.5525 71.9008 88.75 72.3777 88.75 72.875V79.125C88.75 79.6223 88.5525 80.0992 88.2008 80.4508C87.8492 80.8025 87.3723 81 86.875 81C86.3777 81 85.9008 80.8025 85.5492 80.4508C85.1975 80.0992 85 79.6223 85 79.125V72.875C85 72.3777 85.1975 71.9008 85.5492 71.5492C85.9008 71.1975 86.3777 71 86.875 71ZM103.125 71C103.622 71 104.099 71.1975 104.451 71.5492C104.802 71.9008 105 72.3777 105 72.875V79.125C105 79.6223 104.802 80.0992 104.451 80.4508C104.099 80.8025 103.622 81 103.125 81C102.628 81 102.151 80.8025 101.799 80.4508C101.448 80.0992 101.25 79.6223 101.25 79.125V72.875C101.25 72.3777 101.448 71.9008 101.799 71.5492C102.151 71.1975 102.628 71 103.125 71Z" fill="#fff"/>
</svg>
