<svg width="40" height="40" viewBox="0 0 40 40" fill="none" xmlns="http://www.w3.org/2000/svg">
<path d="M19.2331 25.8334C19.1499 25.8335 19.0675 25.8171 18.9907 25.7853C18.9138 25.7535 18.844 25.7068 18.7853 25.6479L15.6186 22.4812C15.4998 22.3624 15.4331 22.2013 15.4331 22.0334C15.4331 21.8654 15.4998 21.7043 15.6186 21.5855C15.7374 21.4668 15.8985 21.4 16.0665 21.4C16.2344 21.4 16.3955 21.4668 16.5143 21.5855L19.2331 24.3044L24.4853 19.0522C24.5441 18.9934 24.6139 18.9467 24.6907 18.9149C24.7676 18.8831 24.8499 18.8667 24.9331 18.8667C25.0163 18.8667 25.0986 18.8831 25.1755 18.9149C25.2523 18.9467 25.3221 18.9934 25.3809 19.0522C25.4397 19.111 25.4864 19.1808 25.5182 19.2577C25.5501 19.3345 25.5664 19.4169 25.5664 19.5C25.5664 19.5832 25.5501 19.6655 25.5182 19.7424C25.4864 19.8192 25.4398 19.889 25.381 19.9479L19.681 25.6479C19.6222 25.7068 19.5524 25.7535 19.4755 25.7853C19.3987 25.8171 19.3163 25.8335 19.2331 25.8334Z" fill="white"/>
<path d="M28.1 28.9999H12.9C12.3963 28.9994 11.9133 28.799 11.5571 28.4428C11.2009 28.0866 11.0006 27.6037 11 27.0999V13.1666C11.0006 12.6629 11.2009 12.1799 11.5571 11.8237C11.9133 11.4675 12.3963 11.2672 12.9 11.2666H14.1667C14.3347 11.2666 14.4958 11.3333 14.6146 11.4521C14.7334 11.5709 14.8001 11.732 14.8001 11.8999C14.8001 12.0679 14.7334 12.229 14.6146 12.3478C14.4958 12.4665 14.3347 12.5333 14.1667 12.5333H12.9C12.7321 12.5335 12.5711 12.6002 12.4524 12.719C12.3336 12.8377 12.2669 12.9987 12.2667 13.1666V27.0999C12.2669 27.2678 12.3336 27.4288 12.4524 27.5476C12.5711 27.6663 12.7321 27.7331 12.9 27.7333H28.1C28.2679 27.7331 28.4289 27.6663 28.5476 27.5476C28.6664 27.4288 28.7331 27.2678 28.7333 27.0999V13.1666C28.7331 12.9987 28.6664 12.8377 28.5476 12.719C28.4289 12.6002 28.2679 12.5335 28.1 12.5333H26.8334C26.6654 12.5333 26.5043 12.4665 26.3855 12.3478C26.2668 12.229 26.2 12.0679 26.2 11.8999C26.2 11.732 26.2668 11.5709 26.3855 11.4521C26.5043 11.3333 26.6654 11.2666 26.8334 11.2666H28.1C28.6037 11.2672 29.0867 11.4675 29.4429 11.8237C29.7991 12.1799 29.9994 12.6629 30 13.1666V27.0999C29.9994 27.6037 29.7991 28.0866 29.4429 28.4428C29.0867 28.799 28.6037 28.9994 28.1 28.9999Z" fill="white"/>
<path d="M23.0333 12.5333H17.9667C17.7987 12.5333 17.6376 12.4666 17.5188 12.3478C17.4001 12.2291 17.3333 12.068 17.3333 11.9C17.3333 11.732 17.4001 11.5709 17.5188 11.4522C17.6376 11.3334 17.7987 11.2667 17.9667 11.2667H23.0333C23.1165 11.2667 23.1989 11.283 23.2757 11.3149C23.3525 11.3467 23.4224 11.3934 23.4812 11.4522C23.54 11.511 23.5866 11.5808 23.6185 11.6576C23.6503 11.7345 23.6667 11.8168 23.6667 11.9C23.6667 11.9832 23.6503 12.0655 23.6185 12.1424C23.5866 12.2192 23.54 12.289 23.4812 12.3478C23.4224 12.4066 23.3525 12.4533 23.2757 12.4851C23.1989 12.517 23.1165 12.5333 23.0333 12.5333ZM24.9333 13.8C24.7654 13.8 24.6043 13.7333 24.4855 13.6145C24.3667 13.4957 24.3 13.3346 24.3 13.1667V10.6333C24.3 10.4654 24.3667 10.3043 24.4855 10.1855C24.6043 10.0667 24.7654 10 24.9333 10C25.1013 10 25.2624 10.0667 25.3812 10.1855C25.4999 10.3043 25.5667 10.4654 25.5667 10.6333V13.1667C25.5667 13.3346 25.4999 13.4957 25.3812 13.6145C25.2624 13.7333 25.1013 13.8 24.9333 13.8ZM16.0667 13.8C15.9835 13.8 15.9011 13.7836 15.8243 13.7518C15.7475 13.72 15.6776 13.6733 15.6188 13.6145C15.56 13.5557 15.5134 13.4859 15.4815 13.409C15.4497 13.3322 15.4333 13.2498 15.4333 13.1667V10.6333C15.4333 10.4654 15.5001 10.3043 15.6188 10.1855C15.7376 10.0667 15.8987 10 16.0667 10C16.2346 10 16.3957 10.0667 16.5145 10.1855C16.6333 10.3043 16.7 10.4654 16.7 10.6333V13.1667C16.7 13.3346 16.6333 13.4957 16.5145 13.6145C16.3957 13.7333 16.2346 13.8 16.0667 13.8ZM29.3667 16.9667H11.6333C11.4654 16.9667 11.3043 16.8999 11.1855 16.7812C11.0667 16.6624 11 16.5013 11 16.3333C11 16.1654 11.0667 16.0043 11.1855 15.8855C11.3043 15.7667 11.4654 15.7 11.6333 15.7H29.3667C29.5346 15.7 29.6957 15.7667 29.8145 15.8855C29.9333 16.0043 30 16.1654 30 16.3333C30 16.5013 29.9333 16.6624 29.8145 16.7812C29.6957 16.8999 29.5346 16.9667 29.3667 16.9667Z" fill="white"/>
</svg>
