<svg xmlns="http://www.w3.org/2000/svg" width="52" height="16" viewBox="0 0 52 16" fill="none">
  <path d="M1.75 12.7448C2.93919 12.5237 5.38243 10.4892 5.64189 4.12045C5.96622 -3.8405 8.88513 6.11069 10.8311 5.11557C12.777 4.12045 13.75 2.13015 15.3716 6.77404C16.9932 11.4179 17.3176 12.413 19.2635 11.4179C21.2095 10.4228 22.9527 0.47168 24.25 4.12045C25.5473 7.76922 28.3446 6.11062 30.2905 6.77404C32.2365 7.43745 32.2365 12.413 34.1824 10.0911C36.1284 7.76915 35.6284 6.77404 37.25 6.77404C38.8716 6.77404 39.6959 11.0862 41.3176 10.0911C42.9392 9.09598 44.3041 11.0862 46.25 11.4179C48.1959 11.7496 48.6284 15.3001 50.25 14.9684" stroke="#FF6464" strokeWidth="2" stroke-linecap="round" stroke-linejoin="round"/>
</svg>