<svg xmlns="http://www.w3.org/2000/svg" width="51" height="18" viewBox="0 0 51 18" fill="none">
  <path d="M1.5 14.7764C2.68919 14.5553 5.13243 12.5208 5.39189 6.15206C5.71622 -1.80889 8.63513 8.1423 10.5811 7.14718C12.527 6.15206 13.5 4.16176 15.1216 8.80565C16.7432 13.4495 17.0676 14.4447 19.0135 13.4495C20.9595 12.4544 22.5811 12.1227 23.8784 15.7715C25.1757 19.4203 28.0946 8.14224 30.0405 8.80565C31.9865 9.46906 31.9865 14.4447 33.9324 12.1227C35.8784 9.80077 35.5541 6.15206 37.1757 6.15206C38.7973 6.15206 39.4459 13.1178 41.0676 12.1227C42.6892 11.1276 44.6351 1.1764 46.5811 1.50811C48.527 1.83981 47.8784 4.82516 49.5 4.49346" stroke="#00CD88" strokeWidth="2" stroke-linecap="round" stroke-linejoin="round"/>
</svg>