<svg width="21" height="21" viewBox="0 0 21 21" fill="none" xmlns="http://www.w3.org/2000/svg">
<path d="M10.8787 2.65137C6.27874 2.65137 2.54541 6.3847 2.54541 10.9847C2.54541 15.5847 6.27874 19.318 10.8787 19.318C15.4787 19.318 19.2121 15.5847 19.2121 10.9847C19.2121 6.3847 15.4787 2.65137 10.8787 2.65137ZM15.2037 14.268C15.1704 14.343 15.1287 14.4097 15.0704 14.468L13.6621 15.8764C13.5371 16.0014 13.3787 16.0597 13.2204 16.0597C13.0621 16.0597 12.9037 16.0014 12.7787 15.8764C12.5371 15.6347 12.5371 15.2347 12.7787 14.993L13.1204 14.6514H8.46208C7.37874 14.6514 6.50374 13.768 6.50374 12.693V11.218C6.50374 10.8764 6.78708 10.593 7.12874 10.593C7.47041 10.593 7.75374 10.8764 7.75374 11.218V12.693C7.75374 13.0847 8.07041 13.4014 8.46208 13.4014H13.1204L12.7787 13.0597C12.5371 12.818 12.5371 12.418 12.7787 12.1764C13.0204 11.9347 13.4204 11.9347 13.6621 12.1764L15.0704 13.5847C15.1287 13.643 15.1704 13.7097 15.2037 13.7847C15.2704 13.943 15.2704 14.118 15.2037 14.268ZM15.2537 10.7514C15.2537 11.093 14.9704 11.3764 14.6287 11.3764C14.2871 11.3764 14.0037 11.093 14.0037 10.7514V9.27637C14.0037 8.8847 13.6871 8.56803 13.2954 8.56803H8.63708L8.97874 8.90137C9.22041 9.14303 9.22041 9.54303 8.97874 9.7847C8.85374 9.9097 8.69541 9.96803 8.53708 9.96803C8.37874 9.96803 8.22041 9.9097 8.09541 9.7847L6.68708 8.37637C6.62874 8.31803 6.58708 8.25137 6.55374 8.17637C6.48708 8.02637 6.48708 7.85137 6.55374 7.70137C6.58708 7.62637 6.62874 7.55137 6.68708 7.49303L8.09541 6.0847C8.33708 5.84303 8.73708 5.84303 8.97874 6.0847C9.22041 6.32637 9.22041 6.72637 8.97874 6.96803L8.63708 7.3097H13.2954C14.3787 7.3097 15.2537 8.19303 15.2537 9.26803V10.7514Z" fill="white"/>
</svg>
