<svg width="40" height="40" viewBox="0 0 40 40" fill="none" xmlns="http://www.w3.org/2000/svg">
<g clip-path="url(#clip0_379_3019)">
<path fill-rule="evenodd" clip-rule="evenodd" d="M20 13.5C22.2404 13.5 23.965 13.5884 25.301 13.8043C26.6405 14.0209 27.4727 14.3484 28.0147 14.7426C28.6125 15.1774 29.0381 15.8323 29.2764 17.0387C29.1886 17.0135 29.0959 17 29 17C28.4477 17 28 17.4477 28 18V22C28 22.5523 28.4477 23 29 23C29.0959 23 29.1886 22.9865 29.2764 22.9613C29.0381 24.1677 28.6125 24.8226 28.0147 25.2574C27.4727 25.6516 26.6405 25.9791 25.301 26.1957C23.965 26.4116 22.2404 26.5 20 26.5C17.7596 26.5 16.035 26.4116 14.699 26.1957C13.3595 25.9791 12.5273 25.6516 11.9853 25.2574C11.0167 24.5529 10.5 23.2705 10.5 20C10.5 16.7295 11.0167 15.4471 11.9853 14.7426C12.5273 14.3484 13.3595 14.0209 14.699 13.8043C16.035 13.5884 17.7596 13.5 20 13.5ZM20 12C29.0585 12 31 13.412 31 20C31 26.588 29.0585 28 20 28C10.9415 28 9 26.588 9 20C9 13.412 10.9415 12 20 12Z" fill="white"/>
</g>
<defs>
<clipPath id="clip0_379_3019">
<rect x="40" width="40" height="40" rx="20" transform="rotate(90 40 0)" fill="white"/>
</clipPath>
</defs>
</svg>
