<svg width="40" height="40" viewBox="0 0 40 40" fill="none" xmlns="http://www.w3.org/2000/svg">
<path d="M13.9905 30.9052C13.564 30.9052 13.1374 30.763 12.7962 30.5071C12.2844 30.1374 12 29.5687 12 28.9716V12.9336C12 11.8531 12.8815 11 13.9905 11H28.0095C29.1185 11 30 11.8815 30 12.9336V28.9716C30 29.5972 29.7156 30.1374 29.2038 30.5071C28.6919 30.8768 28.0095 30.9905 27.3839 30.8199L21.0711 28.8578C21.0142 28.8294 20.9289 28.8294 20.872 28.8578L14.5592 30.8199C14.4171 30.8768 14.1896 30.9052 13.9905 30.9052ZM21.0142 27.1232C21.2133 27.1232 21.4123 27.1517 21.6114 27.2085L27.9242 29.1706C28.0664 29.2275 28.1801 29.1422 28.2085 29.1137C28.2654 29.0853 28.2938 29.0284 28.2938 28.9431V12.9336C28.2938 12.8199 28.1517 12.7062 28.0095 12.7062H13.9905C13.8483 12.7062 13.7062 12.8199 13.7062 12.9336V28.9716C13.7062 29.0569 13.763 29.1137 13.7915 29.1422C13.8199 29.1706 13.9336 29.2275 14.0758 29.1991L20.3886 27.237C20.5877 27.1517 20.8152 27.1232 21.0142 27.1232Z" fill="white"/>
<path d="M24.5686 20.2132H17.4312C16.9478 20.2132 16.5781 19.8436 16.5781 19.3602C16.5781 18.8767 16.9478 18.5071 17.4312 18.5071H24.5686C25.0521 18.5071 25.4217 18.8767 25.4217 19.3602C25.4217 19.8436 25.0521 20.2132 24.5686 20.2132Z" fill="white"/>
<path d="M21.0142 23.4264C20.5308 23.4264 20.1611 23.0567 20.1611 22.5733V15.6634C20.1611 15.18 20.5308 14.8103 21.0142 14.8103C21.4976 14.8103 21.8673 15.18 21.8673 15.6634V22.5733C21.8673 23.0567 21.4692 23.4264 21.0142 23.4264Z" fill="white"/>
</svg>
