<svg width="40" height="40" viewBox="0 0 40 40" fill="none" xmlns="http://www.w3.org/2000/svg">
<path d="M12.1984 18.6302C12.0469 18.6291 11.8957 18.6174 11.7458 18.5954C11.5687 18.5714 11.4082 18.478 11.2999 18.3357C11.1916 18.1935 11.1442 18.014 11.1682 17.8368C11.1922 17.6596 11.2856 17.4992 11.4279 17.3909C11.5701 17.2825 11.7496 17.2352 11.9268 17.2592C12.2998 17.3096 12.5163 17.2708 12.6509 17.1289C12.876 16.8921 12.9381 16.6357 13.0163 16.3113C13.1371 15.8105 13.3024 15.1247 14.1804 14.738C14.7508 14.4867 15.2707 14.4726 15.7262 14.6962C16.1021 14.8809 16.3621 15.1919 16.5916 15.4664C16.8494 15.7749 17.0719 16.041 17.4176 16.1317C18.2773 16.3574 18.6406 16.2395 18.7805 16.1503C18.8307 16.1182 18.983 16.0203 19.0502 15.6347C19.0828 15.4459 19.0745 15.2237 18.7643 14.9977C18.5882 14.8755 18.3922 14.7849 18.1851 14.7299C18.17 14.7272 18.1549 14.7237 18.1398 14.7199C17.5128 14.5581 17.0611 14.1746 16.7936 13.5811C16.5932 13.134 16.5317 12.6397 16.4775 12.2039C16.4632 12.0901 16.4505 11.983 16.4349 11.8803C16.4205 11.7921 16.4237 11.7019 16.4444 11.615C16.4652 11.5281 16.503 11.4461 16.5556 11.374C16.6083 11.3018 16.6748 11.2408 16.7512 11.1945C16.8277 11.1483 16.9126 11.1177 17.001 11.1045C17.0894 11.0914 17.1795 11.0959 17.2661 11.1179C17.3527 11.1399 17.4341 11.1789 17.5055 11.2326C17.5769 11.2863 17.6369 11.3537 17.6821 11.4308C17.7272 11.5079 17.7566 11.5932 17.7684 11.6818C17.786 11.7996 17.8011 11.9202 17.8154 12.0364C17.9456 13.0817 18.0912 13.3066 18.4553 13.4077C18.8388 13.4987 19.202 13.6603 19.5264 13.8842C20.2136 14.3696 20.5161 15.0727 20.3786 15.8647C20.2669 16.5076 19.9741 16.9852 19.5097 17.2837C18.9224 17.6612 18.1263 17.7109 17.0759 17.4353C16.3136 17.2352 15.8764 16.7123 15.5574 16.3296C15.3999 16.1408 15.2513 15.9634 15.1324 15.9051C15.1019 15.89 15.0094 15.8447 14.7244 15.9704C14.4666 16.085 14.4318 16.1929 14.3269 16.6276C14.2322 17.0208 14.1022 17.5593 13.6284 18.0568C13.1759 18.5336 12.6099 18.6302 12.1984 18.6302ZM18.2072 14.7339C18.3019 14.7499 18.399 14.7438 18.4909 14.7161C18.3987 14.7423 18.3019 14.7483 18.2072 14.7339ZM28.5817 23.0425C27.4332 23.0425 26.584 22.7011 26.0528 22.0248C25.6421 21.5019 25.4522 20.7921 25.5034 19.9721C25.5248 19.617 25.5881 19.2656 25.6922 18.9255C25.6987 18.9063 25.7057 18.8872 25.7138 18.8686C25.8146 18.6356 26.1277 17.8527 25.9185 17.5596C25.8489 17.462 25.6714 17.4247 25.3112 17.3708C24.9743 17.319 24.5561 17.2548 24.1478 17.0318C22.9726 16.3878 22.4435 14.7666 22.5298 12.0771C22.5355 11.8983 22.6121 11.7291 22.7426 11.6068C22.8731 11.4844 23.0469 11.4189 23.2257 11.4247C23.4045 11.4304 23.5737 11.507 23.696 11.6375C23.8184 11.768 23.8839 11.9418 23.8781 12.1206C23.8121 14.1647 24.1378 15.4888 24.795 15.8493C24.9935 15.9572 25.2467 15.9968 25.5145 16.0381C26.0015 16.1125 26.6075 16.2053 27.0155 16.777C27.4542 17.3921 27.437 18.265 26.9645 19.3723C26.8585 19.7215 26.6949 20.6667 27.1147 21.1958C27.4262 21.5896 28.0553 21.7519 28.9846 21.6783C29.1615 21.6667 29.3358 21.7252 29.4698 21.8412C29.6039 21.9571 29.6869 22.1212 29.7008 22.2979C29.7148 22.4746 29.6586 22.6496 29.5445 22.7852C29.4303 22.9208 29.2674 23.006 29.0909 23.0223C28.9154 23.0358 28.7457 23.0425 28.5817 23.0425Z" fill="white"/>
<path d="M19.987 30C17.5082 29.9968 15.1189 29.073 13.2826 27.4078C11.4463 25.7427 10.2939 23.4548 10.049 20.9881C9.80402 18.5214 10.484 16.0516 11.957 14.0578C13.43 12.0641 15.5909 10.6885 18.0208 10.1979C20.4506 9.70723 22.976 10.1366 25.1072 11.4026C27.2384 12.6686 28.8234 14.681 29.5548 17.0495C30.2862 19.418 30.1118 21.9737 29.0655 24.2209C28.0192 26.4681 26.1755 28.2467 23.8921 29.2115C22.6567 29.7343 21.3285 30.0025 19.987 30ZM19.987 11.2847C17.9781 11.2848 16.0313 11.9814 14.4783 13.2558C12.9254 14.5303 11.8624 16.3038 11.4705 18.2742C11.0786 20.2446 11.382 22.2899 12.329 24.0616C13.2761 25.8333 14.8081 27.2219 16.6642 27.9907C18.5202 28.7594 20.5854 28.8609 22.5079 28.2777C24.4303 27.6945 26.0911 26.4628 27.2072 24.7924C28.3233 23.122 28.8257 21.1163 28.6287 19.117C28.4318 17.1177 27.5477 15.2486 26.1272 13.828C25.3227 13.0192 24.3658 12.3779 23.3119 11.9413C22.2579 11.5048 21.1278 11.2816 19.987 11.2847Z" fill="white"/>
<path d="M25.2631 28.3988C25.198 28.3991 25.1332 28.3901 25.0708 28.3718C24.5809 28.2185 24.106 28.0209 23.652 27.7815C23.2179 27.5479 22.87 27.2961 22.616 27.0302C22.1386 26.531 22.0569 26.0483 22.0766 25.7225C22.0796 25.5413 22.1262 24.8488 22.6203 23.9516C22.9169 23.4123 22.8107 22.7381 22.3689 22.3479C22.229 22.2241 22.1022 22.1669 21.9914 22.178C21.8042 22.1971 21.5534 22.3956 21.2986 22.7246C21.0854 23.1122 20.8379 23.48 20.5592 23.8235C19.8755 24.6625 19.1439 25.1549 18.3851 25.2878C17.8306 25.3849 16.9828 25.3264 16.0988 24.4971C16.0693 24.4698 16.0422 24.4399 16.0179 24.4079C15.761 24.0812 15.4736 23.7796 15.1598 23.5072C14.7051 23.1121 14.0056 22.6202 13.2546 22.5186C12.6899 22.4422 12.171 22.5941 11.6681 22.9827C11.5266 23.092 11.3475 23.1407 11.1701 23.118C10.9928 23.0953 10.8317 23.0031 10.7223 22.8616C10.613 22.7201 10.5643 22.541 10.587 22.3636C10.6097 22.1863 10.7019 22.0252 10.8434 21.9158C11.6376 21.3021 12.5119 21.0556 13.4417 21.1831C15.3294 21.442 16.7929 23.2057 17.0599 23.5471C17.4353 23.8863 17.7931 24.0212 18.1518 23.9589C18.5714 23.8863 19.0371 23.5514 19.4988 22.9905C19.7384 22.6982 19.9497 22.3838 20.1298 22.0515C20.1475 22.0173 20.168 21.9846 20.1911 21.9539C20.7034 21.2719 21.2635 20.8957 21.8566 20.8355C22.3495 20.7856 22.8357 20.959 23.2632 21.3371C23.7139 21.7387 24.0113 22.2843 24.1045 22.8807C24.1961 23.4721 24.0894 24.0771 23.8012 24.6015C23.4379 25.2611 23.4236 25.7295 23.4236 25.7341C23.4242 25.7563 23.4236 25.7784 23.4217 25.8005C23.4134 25.9083 23.5808 26.2093 24.2744 26.5855C24.6525 26.7852 25.0477 26.9505 25.4553 27.0795C25.6115 27.1251 25.7459 27.2255 25.8338 27.3623C25.9217 27.4992 25.9572 27.6632 25.9337 27.8241C25.9102 27.985 25.8294 28.1321 25.706 28.2381C25.5827 28.3441 25.4252 28.4019 25.2625 28.4009L25.2631 28.3988Z" fill="white"/>
</svg>
