<svg width="40" height="40" viewBox="0 0 40 40" fill="none" xmlns="http://www.w3.org/2000/svg">
<g clip-path="url(#clip0_379_3188)">
<g clip-path="url(#clip1_379_3188)">
<path fill-rule="evenodd" clip-rule="evenodd" d="M19 14.25C19.4142 14.25 19.75 14.5858 19.75 15V16.25H22.3333C22.7475 16.25 23.0833 16.5858 23.0833 17C23.0833 17.4142 22.7475 17.75 22.3333 17.75H19.75V20.25H20.6667C21.4503 20.25 22.2207 20.5158 22.8047 21.0163C23.3922 21.52 23.75 22.2301 23.75 23C23.75 23.7699 23.3922 24.48 22.8047 24.9837C22.2207 25.4842 21.4503 25.75 20.6667 25.75H19.75V27C19.75 27.4142 19.4142 27.75 19 27.75C18.5858 27.75 18.25 27.4142 18.25 27V25.75H15C14.5858 25.75 14.25 25.4142 14.25 25C14.25 24.5858 14.5858 24.25 15 24.25H18.25V21.75H17.3333C16.5497 21.75 15.7793 21.4842 15.1953 20.9837C14.6078 20.48 14.25 19.7699 14.25 19C14.25 18.2301 14.6078 17.52 15.1953 17.0163C15.7793 16.5158 16.5497 16.25 17.3333 16.25H18.25V15C18.25 14.5858 18.5858 14.25 19 14.25ZM18.25 17.75H17.3333C16.8793 17.75 16.4627 17.9056 16.1715 18.1552C15.8839 18.4018 15.75 18.7091 15.75 19C15.75 19.2909 15.8839 19.5982 16.1715 19.8448C16.4627 20.0944 16.8793 20.25 17.3333 20.25H18.25V17.75ZM19.75 21.75V24.25H20.6667C21.1207 24.25 21.5373 24.0944 21.8285 23.8448C22.1161 23.5982 22.25 23.2909 22.25 23C22.25 22.7091 22.1161 22.4018 21.8285 22.1552C21.5373 21.9056 21.1207 21.75 20.6667 21.75H19.75Z" fill="white"/>
<path fill-rule="evenodd" clip-rule="evenodd" d="M12.2877 12.2847C13.2159 11.0804 14.3841 10.0812 15.7187 9.35077C17.0907 8.59985 18.607 8.15013 20.1665 8.03162C21.726 7.91312 23.2929 8.12854 24.7626 8.66352C26.2323 9.1985 27.571 10.0407 28.6894 11.134C29.8078 12.2273 30.6802 13.5466 31.2484 15.0037C31.8166 16.4609 32.0675 18.0225 31.9845 19.5843C31.9014 21.1461 31.4862 22.6723 30.7666 24.0609C30.0471 25.4496 29.0396 26.6688 27.8115 27.6373C27.7852 27.6581 27.7579 27.6768 27.7298 27.6935C25.719 30.3121 22.5566 32 19 32C12.9249 32 8 27.0751 8 21C8 17.4519 9.67988 14.2961 12.2877 12.2847ZM20.2802 9.52731C21.627 9.42496 22.9802 9.61101 24.2495 10.073C25.5188 10.5351 26.6749 11.2625 27.6408 12.2067C28.6067 13.1509 29.3602 14.2902 29.8509 15.5487C30.3416 16.8071 30.5583 18.1558 30.4866 19.5046C30.4368 20.4404 30.249 21.3614 29.9311 22.2381C29.9766 21.8317 30 21.4186 30 21C30 14.9249 25.0751 10 19 10C18.5814 10 18.1683 10.0234 17.7619 10.0689C18.5707 9.77564 19.4178 9.59284 20.2802 9.52731ZM13.1866 13.4858C13.2389 13.4554 13.288 13.4184 13.3326 13.3749C14.9148 12.1971 16.876 11.5 19 11.5C24.2467 11.5 28.5 15.7533 28.5 21C28.5 26.2467 24.2467 30.5 19 30.5C13.7533 30.5 9.5 26.2467 9.5 21C9.5 17.9431 10.9438 15.2235 13.1866 13.4858Z" fill="white"/>
</g>
</g>
<defs>
<clipPath id="clip0_379_3188">
<rect width="40" height="40" rx="20" fill="white"/>
</clipPath>
<clipPath id="clip1_379_3188">
<rect width="24" height="24" fill="white" transform="translate(8 8)"/>
</clipPath>
</defs>
</svg>
