<svg xmlns="http://www.w3.org/2000/svg" width="17" height="20" viewBox="0 0 17 20" fill="none">
  <path d="M10.8135 3.59852C10.8767 3.72478 10.9548 3.83443 11.0494 3.92912C11.1441 4.02382 11.2604 4.07034 11.3983 4.07034H14.1744V3.76798C14.1744 3.69322 14.1611 3.6035 14.1362 3.50383C14.1113 3.40248 14.0448 3.27955 13.9385 3.13501C13.8322 2.99048 13.6777 2.81438 13.475 2.60671C13.274 2.39905 13.0032 2.1432 12.6626 1.8425C12.3486 1.56506 12.0861 1.34245 11.8784 1.17133C11.6708 1.00187 11.4947 0.868969 11.3501 0.774274C11.2073 0.68124 11.0843 0.621432 10.9847 0.594851C10.8833 0.569931 10.777 0.556641 10.664 0.556641H10.6258V2.87917C10.6258 2.96722 10.6408 3.07687 10.6723 3.20977C10.7039 3.34268 10.7521 3.47226 10.8135 3.59852ZM10.6059 14.7111H3.53031C3.20303 14.7111 2.92559 14.5981 2.69965 14.3705C2.47371 14.1446 2.35908 13.8672 2.35908 13.5399C2.35908 13.2126 2.47205 12.9318 2.69965 12.6992C2.92559 12.4667 3.20303 12.3504 3.53031 12.3504H10.6059C10.9332 12.3504 11.2139 12.4667 11.4465 12.6992C11.6791 12.9318 11.7954 13.2126 11.7954 13.5399C11.7954 13.7791 11.7256 14.0001 11.5877 14.2011L14.1711 11.5197V5.27646H11.4133C11.0611 5.27646 10.7587 5.19837 10.5062 5.04055C10.2537 4.88272 10.0493 4.68835 9.89317 4.45576C9.73534 4.22318 9.61905 3.96733 9.54429 3.69155C9.46953 3.41411 9.43132 3.15661 9.43132 2.91738V0.558302H2.20956C1.92049 0.558302 1.64305 0.636384 1.3789 0.79421C1.11475 0.952035 0.878839 1.14641 0.671174 1.37899C0.463509 1.61158 0.299038 1.87241 0.179423 2.16314C0.0598075 2.45221 0 2.72965 0 2.9938V15.8441C0 16.1581 0.0814045 16.4638 0.245875 16.7595C0.410346 17.0552 0.614689 17.3161 0.858903 17.5437C1.10478 17.7696 1.36893 17.9523 1.65135 18.0919C1.93544 18.2298 2.19627 18.2996 2.4355 18.2996H7.6454L11.3053 14.4885C11.1159 14.6363 10.8833 14.7111 10.6059 14.7111ZM2.69965 7.98607C2.92559 7.75349 3.20303 7.63719 3.53031 7.63719H10.6059C10.9332 7.63719 11.2139 7.75349 11.4465 7.98607C11.6791 8.21866 11.7954 8.49942 11.7954 8.8267C11.7954 9.15398 11.6791 9.43142 11.4465 9.65736C11.2139 9.8833 10.9332 9.99793 10.6059 9.99793H3.53031C3.20303 9.99793 2.92559 9.88496 2.69965 9.65736C2.47371 9.43142 2.35908 9.15398 2.35908 8.8267C2.36074 8.49942 2.47371 8.21866 2.69965 7.98607ZM16.9206 12.9584C16.8458 12.7823 16.7345 12.6145 16.59 12.4583C16.4454 12.3005 16.3092 12.1909 16.1846 12.1277C16.0716 12.0646 15.9271 12.0231 15.751 12.0048C15.5749 11.9865 15.4104 12.0463 15.2592 12.1842C15.1961 12.2341 15.118 12.3038 15.0233 12.3919C14.9286 12.4799 14.8439 12.5564 14.7691 12.6178L16.374 14.2044C16.4122 14.1795 16.4554 14.1413 16.5069 14.0914C16.5451 14.0532 16.5883 14.0067 16.6398 13.9502C16.6896 13.8937 16.7461 13.8339 16.8093 13.7708C16.9471 13.6329 17.0103 13.4884 16.9986 13.3372C16.9837 13.186 16.9588 13.0597 16.9206 12.9584ZM12.3154 15.0517C12.0894 15.2776 11.8618 15.5085 11.6359 15.7411C11.41 15.9737 11.2023 16.1847 11.0129 16.3741L10.2952 17.0918C10.1689 17.218 10.0693 17.3626 9.99285 17.5254C9.96793 17.5752 9.93304 17.6699 9.88819 17.8095C9.84333 17.9474 9.79681 18.0952 9.74697 18.253C9.69713 18.4109 9.65228 18.5654 9.61407 18.7149C9.57586 18.8661 9.55094 18.979 9.53931 19.0555C9.51439 19.2066 9.52602 19.313 9.57752 19.3761C9.62736 19.4392 9.7287 19.4575 9.87988 19.4326C9.95464 19.4193 10.0693 19.3944 10.2204 19.3578C10.3716 19.3196 10.5295 19.2764 10.6923 19.2249C10.8567 19.1751 11.0162 19.1202 11.174 19.0638C11.3319 19.0073 11.4482 18.9608 11.5229 18.9226C11.5977 18.8843 11.6741 18.8378 11.7489 18.7813C11.8236 18.7249 11.8934 18.6717 11.9565 18.6202C11.9698 18.6069 12.0346 18.5388 12.1542 18.4125C12.2738 18.2863 12.4217 18.1351 12.5978 17.959L15.7294 14.8274L14.1428 13.2408C13.465 13.9054 12.857 14.5101 12.3154 15.0517Z" fill="currentColor"/>
</svg>