<svg xmlns="http://www.w3.org/2000/svg" width="17" height="19" viewBox="0 0 17 19" fill="none">
  <path d="M16.717 14.0288C16.6165 12.982 15.6821 12.1599 14.5939 12.1599C14.5632 12.1601 14.5327 12.1542 14.5043 12.1425C14.4758 12.1308 14.45 12.1136 14.4283 12.0919C14.4066 12.0702 14.3894 12.0444 14.3777 12.0159C14.366 11.9875 14.3601 11.957 14.3603 11.9263V8.44299C14.3603 5.85563 12.7044 3.59946 10.4245 2.75673C10.4511 2.62365 10.4659 2.48765 10.4659 2.35161C10.4659 1.23689 9.56114 0.332031 8.44632 0.332031C7.3315 0.332031 6.42669 1.23689 6.42669 2.35166C6.42669 2.48474 6.44146 2.61777 6.46511 2.74493C5.68154 3.02289 4.95707 3.46347 4.33907 4.06078C3.17402 5.18444 2.53237 6.69545 2.53237 8.31588V11.9264C2.53237 12.0535 2.42887 12.16 2.29875 12.16C1.20763 12.16 0.276158 12.982 0.175619 14.0288C0.119423 14.6113 0.311663 15.1909 0.704932 15.6226C1.09524 16.0514 1.65413 16.2998 2.23663 16.2998H5.80277C5.95061 17.6275 7.0802 18.6654 8.44632 18.6654C9.81244 18.6654 10.942 17.6275 11.0899 16.2998H14.656C15.2386 16.2998 15.7974 16.0514 16.1877 15.6226C16.578 15.1908 16.7732 14.6113 16.717 14.0288ZM8.44632 1.5148C8.90759 1.5148 9.28313 1.89034 9.28313 2.35161C9.28313 2.39003 9.2772 2.42553 9.27128 2.46395C9.0702 2.43437 8.86616 2.41368 8.66211 2.40776C8.31023 2.3959 7.96426 2.41961 7.62126 2.46691C7.61534 2.4285 7.60941 2.39299 7.60941 2.35457C7.60951 1.89034 7.98505 1.5148 8.44632 1.5148ZM8.44632 17.4825C7.73371 17.4825 7.13639 16.9739 6.99739 16.2997H9.8952C9.7563 16.9739 9.15899 17.4825 8.44632 17.4825ZM15.3124 14.8271C15.1409 15.0135 14.9103 15.1169 14.656 15.1169H2.23668C1.98237 15.1169 1.75176 15.0134 1.58021 14.8271C1.40871 14.6409 1.32886 14.3954 1.35548 14.1411C1.39686 13.6946 1.81383 13.3428 2.30171 13.3428C3.08237 13.3428 3.7181 12.707 3.7181 11.9264V8.31588C3.7181 7.02072 4.2326 5.81133 5.16407 4.9124C6.05115 4.05194 7.21032 3.5847 8.44632 3.5847C8.50548 3.5847 8.56162 3.5847 8.62078 3.58766C11.1313 3.67635 13.1775 5.85568 13.1775 8.44304V11.9264C13.1775 12.707 13.8132 13.3428 14.5939 13.3428C15.0818 13.3428 15.4987 13.6946 15.5401 14.1411C15.5638 14.3954 15.4839 14.6379 15.3124 14.8271ZM0.787744 7.4288C1.05978 7.4288 1.30521 7.23957 1.36436 6.96457C1.65117 5.66645 2.29875 4.48368 3.24498 3.54337C3.47564 3.31271 3.47564 2.93717 3.24498 2.70656C3.01433 2.4759 2.63879 2.4759 2.40818 2.70656C1.30229 3.80647 0.542321 5.19333 0.20821 6.71318C0.13725 7.03252 0.338329 7.3489 0.657675 7.41695C0.704982 7.42584 0.746363 7.4288 0.787744 7.4288ZM16.1049 7.4288C16.1463 7.4288 16.1907 7.42288 16.2321 7.41404C16.5514 7.34308 16.7525 7.02961 16.6815 6.71026C16.3474 5.19037 15.5874 3.80652 14.4815 2.70355C14.2508 2.47289 13.8753 2.47289 13.6447 2.70355C13.4141 2.93421 13.414 3.30975 13.6447 3.54036C14.588 4.48067 15.2385 5.66349 15.5253 6.96156C15.5874 7.23953 15.8329 7.4288 16.1049 7.4288Z" fill="white"/>
</svg>