<svg xmlns="http://www.w3.org/2000/svg" width="20" height="20" viewBox="0 0 20 20" fill="none">
  <path d="M7.29992 6.2667H12.4999C11.8666 3.5667 10.6999 1.7667 10.4333 1.3667H9.99992C9.79992 1.3667 9.56658 1.3667 9.36658 1.40003C9.06658 1.83337 7.93325 3.60003 7.29992 6.2667ZM6.16658 6.2667C6.63325 4.1667 7.39992 2.5667 7.93325 1.60003C5.39992 2.23337 3.29992 3.9667 2.16659 6.2667H6.16658ZM13.6333 6.2667H17.8333C16.6999 3.90003 14.4999 2.13337 11.8333 1.5667C12.3666 2.50003 13.1333 4.13337 13.6333 6.2667ZM5.76658 10C5.76658 9.0667 5.83325 8.20003 5.96659 7.3667H1.76659C1.49992 8.20003 1.33325 9.10003 1.33325 10.0334C1.33325 10.9334 1.46659 11.8 1.73325 12.6334H5.96659C5.83325 11.8 5.76658 10.9334 5.76658 10ZM6.16658 13.7H2.16659C3.26658 16.0667 5.43325 17.8334 8.03325 18.4667C7.46658 17.5334 6.66658 15.9 6.16658 13.7ZM12.1333 12.9667C12.0333 12.5 12.1333 12.0334 12.4333 11.7C12.6999 11.3667 13.0999 11.1667 13.5333 11.1667C13.7999 11.1667 14.0999 11.2334 14.3333 11.4L17.8666 13.6C18.3666 12.5 18.6333 11.3 18.6333 10.0334C18.6333 9.10003 18.4999 8.20003 18.1999 7.3667H13.8333C13.9666 8.20003 14.0333 9.0667 14.0333 10C14.0333 10.3 13.7999 10.5334 13.4999 10.5334C13.1999 10.5334 12.9666 10.3 12.9666 10C12.9666 9.0667 12.8666 8.20003 12.7333 7.3667H7.06658C6.93325 8.1667 6.83325 9.0667 6.83325 10C6.83325 10.9334 6.93325 11.8 7.06658 12.6334H9.89992C10.1999 12.6334 10.4333 12.8667 10.4333 13.1667C10.4333 13.4667 10.1999 13.7 9.89992 13.7H7.29992C8.03325 16.7 9.36658 18.5667 9.43325 18.6667C9.63325 18.6667 9.79992 18.7 9.99992 18.7C11.1333 18.7 12.1999 18.5 13.1999 18.1L12.1333 12.9667Z" fill="white"/>
  <path d="M18.3667 15.1334C18.8001 15.4001 18.7667 16.0334 18.3334 16.1001L16.1334 16.3334L15.1334 18.3334C14.9334 18.7334 14.3334 18.5334 14.2334 18.0334L13.1667 12.7334C13.0667 12.3334 13.4667 12.0667 13.8001 12.2667L18.3667 15.1334Z" fill="white"/>
</svg>