<svg width="40" height="40" viewBox="0 0 40 40" fill="none" xmlns="http://www.w3.org/2000/svg">
<path d="M27.3333 19.8333C27.7754 19.8333 28.1993 20.0089 28.5118 20.3215C28.8244 20.634 29 21.058 29 21.5V27.3333C29 27.7754 28.8244 28.1993 28.5118 28.5118C28.1993 28.8244 27.7754 29 27.3333 29H21.5C21.058 29 20.634 28.8244 20.3215 28.5118C20.0089 28.1993 19.8333 27.7754 19.8333 27.3333V21.5C19.8333 21.058 20.0089 20.634 20.3215 20.3215C20.634 20.0089 21.058 19.8333 21.5 19.8333H27.3333ZM16.5 19.8333C16.942 19.8333 17.366 20.0089 17.6785 20.3215C17.9911 20.634 18.1667 21.058 18.1667 21.5V27.3333C18.1667 27.7754 17.9911 28.1993 17.6785 28.5118C17.366 28.8244 16.942 29 16.5 29H10.6667C10.2246 29 9.80072 28.8244 9.48816 28.5118C9.17559 28.1993 9 27.7754 9 27.3333V21.5C9 21.058 9.17559 20.634 9.48816 20.3215C9.80072 20.0089 10.2246 19.8333 10.6667 19.8333H16.5ZM27.3333 21.5H21.5V27.3333H27.3333V21.5ZM16.5 21.5H10.6667V27.3333H16.5V21.5ZM16.5 9C16.942 9 17.366 9.17559 17.6785 9.48816C17.9911 9.80072 18.1667 10.2246 18.1667 10.6667V16.5C18.1667 16.942 17.9911 17.366 17.6785 17.6785C17.366 17.9911 16.942 18.1667 16.5 18.1667H10.6667C10.2246 18.1667 9.80072 17.9911 9.48816 17.6785C9.17559 17.366 9 16.942 9 16.5V10.6667C9 10.2246 9.17559 9.80072 9.48816 9.48816C9.80072 9.17559 10.2246 9 10.6667 9H16.5ZM27.3333 9C27.7754 9 28.1993 9.17559 28.5118 9.48816C28.8244 9.80072 29 10.2246 29 10.6667V16.5C29 16.942 28.8244 17.366 28.5118 17.6785C28.1993 17.9911 27.7754 18.1667 27.3333 18.1667H21.5C21.058 18.1667 20.634 17.9911 20.3215 17.6785C20.0089 17.366 19.8333 16.942 19.8333 16.5V10.6667C19.8333 10.2246 20.0089 9.80072 20.3215 9.48816C20.634 9.17559 21.058 9 21.5 9H27.3333ZM16.5 10.6667H10.6667V16.5H16.5V10.6667ZM27.3333 10.6667H21.5V16.5H27.3333V10.6667Z" fill="white"/>
</svg>
